<svg width="18" height="18" viewBox="0 0 18 18" fill="none" xmlns="http://www.w3.org/2000/svg">
<path d="M11.25 14.0625V15.1875H6.75V14.0625H0.5625V16.875C0.5625 17.1855 0.8145 17.4375 1.125 17.4375H16.875C17.1855 17.4375 17.4375 17.1855 17.4375 16.875V14.0625H11.25Z" fill="#E99A00"/>
<path d="M17.4375 3.375H12.375V1.125C12.375 0.8145 12.123 0.5625 11.8125 0.5625H6.1875C5.877 0.5625 5.625 0.8145 5.625 1.125V3.375H0.5625C0.252 3.375 0 3.627 0 3.9375V12.375C0 12.6855 0.252 12.9375 0.5625 12.9375H6.75V11.8125H11.25V12.9375H17.4375C17.748 12.9375 18 12.6855 18 12.375V3.9375C18 3.627 17.748 3.375 17.4375 3.375ZM11.25 3.375H6.75V1.6875H11.25V3.375Z" fill="#E99A00"/>
</svg>
