<svg width="18" height="18" viewBox="0 0 18 18" fill="none" xmlns="http://www.w3.org/2000/svg">
<path d="M5.37109 1.875H12.6289C13.0293 1.87498 13.353 1.87509 13.6152 1.89648C13.8885 1.9188 14.1294 1.96589 14.3516 2.0791C14.7043 2.25884 14.9912 2.54574 15.1709 2.89844C15.284 3.12048 15.3312 3.36077 15.3535 3.63379C15.3749 3.89613 15.375 4.22049 15.375 4.62109V15.375H16.5C16.7071 15.375 16.875 15.5429 16.875 15.75C16.875 15.9571 16.7071 16.125 16.5 16.125H1.5C1.29289 16.125 1.125 15.9571 1.125 15.75C1.125 15.5429 1.29289 15.375 1.5 15.375H2.625V4.62109L2.62793 4.07617C2.63067 3.9122 2.63576 3.76505 2.64648 3.63379C2.66882 3.36078 2.71596 3.12049 2.8291 2.89844C3.00884 2.54576 3.29576 2.25884 3.64844 2.0791C3.87049 1.96596 4.11079 1.91882 4.38379 1.89648C4.51505 1.88576 4.66219 1.88067 4.82617 1.87793L5.37109 1.875ZM5.4375 10.125C4.81619 10.125 4.3125 10.6287 4.3125 11.25C4.3125 11.8713 4.81619 12.375 5.4375 12.375H7.5C8.12133 12.375 8.625 11.8713 8.625 11.25C8.625 10.6287 8.12133 10.125 7.5 10.125H5.4375ZM10.5 10.125C9.87867 10.125 9.375 10.6287 9.375 11.25C9.375 11.8713 9.87867 12.375 10.5 12.375H12.5625C13.1838 12.375 13.6875 11.8713 13.6875 11.25C13.6875 10.6287 13.1838 10.125 12.5625 10.125H10.5ZM5.4375 7.125C4.81619 7.125 4.3125 7.62866 4.3125 8.25C4.3125 8.87134 4.81619 9.375 5.4375 9.375H7.5C8.12133 9.375 8.625 8.87133 8.625 8.25C8.625 7.62867 8.12133 7.125 7.5 7.125H5.4375ZM10.5 7.125C9.87867 7.125 9.375 7.62867 9.375 8.25C9.375 8.87133 9.87867 9.375 10.5 9.375H12.5625C13.1838 9.375 13.6875 8.87133 13.6875 8.25C13.6875 7.62867 13.1838 7.125 12.5625 7.125H10.5ZM5.4375 4.125C4.81618 4.125 4.3125 4.62868 4.3125 5.25C4.3125 5.87133 4.81619 6.375 5.4375 6.375H7.5C8.12133 6.375 8.625 5.87132 8.625 5.25C8.625 4.62869 8.12134 4.125 7.5 4.125H5.4375ZM10.5 4.125C9.87866 4.125 9.375 4.62869 9.375 5.25C9.375 5.87132 9.87867 6.375 10.5 6.375H12.5625C13.1838 6.375 13.6875 5.87132 13.6875 5.25C13.6875 4.62869 13.1838 4.125 12.5625 4.125H10.5Z" fill="#E99A00" stroke="#E99A00" stroke-width="0.75"/>
</svg>
