<svg width="24" height="24" viewBox="0 0 24 24" fill="none" xmlns="http://www.w3.org/2000/svg">
<path d="M16 1.5C16.2762 1.5 16.5 1.72386 16.5 2V3.49805L16.9961 3.50195C17.4691 3.5052 17.8696 3.51509 18.2109 3.54297C18.742 3.58636 19.1856 3.6764 19.5889 3.88184C20.2473 4.21739 20.7826 4.7526 21.1182 5.41113C21.3236 5.8143 21.4137 6.25805 21.457 6.78906C21.4992 7.30537 21.5 7.94653 21.5 8.75879V17.2412C21.5 18.0535 21.4992 18.6946 21.457 19.2109C21.4137 19.7419 21.3236 20.1856 21.1182 20.5889C20.7826 21.2474 20.2474 21.7826 19.5889 22.1182C19.1856 22.3236 18.7419 22.4137 18.2109 22.457C17.6946 22.4992 17.0535 22.5 16.2412 22.5H7.75879C6.94653 22.5 6.30537 22.4992 5.78906 22.457C5.25805 22.4137 4.81432 22.3236 4.41113 22.1182C3.7526 21.7826 3.21738 21.2473 2.88184 20.5889C2.67639 20.1856 2.58635 19.742 2.54297 19.2109C2.50079 18.6946 2.49999 18.0535 2.5 17.2412V8.75879C2.49999 7.94652 2.50079 7.30535 2.54297 6.78906C2.58635 6.25801 2.67641 5.81429 2.88184 5.41113C3.21738 4.75262 3.75262 4.21739 4.41113 3.88184C4.81431 3.67641 5.258 3.58636 5.78906 3.54297C6.13039 3.5151 6.53098 3.5052 7.00391 3.50195L7.5 3.49805V2C7.5 1.72386 7.72386 1.5 8 1.5C8.27614 1.5 8.5 1.72386 8.5 2V3.5H15.5V2C15.5 1.72386 15.7238 1.5 16 1.5ZM9 14.5C8.17158 14.5 7.5 15.1716 7.5 16C7.5 16.8284 8.17158 17.5 9 17.5H15C15.8284 17.5 16.5 16.8284 16.5 16C16.5 15.1716 15.8284 14.5 15 14.5H9ZM16.5 6C16.5 6.27614 16.2762 6.5 16 6.5C15.7238 6.5 15.5 6.27614 15.5 6V4.5H8.5V6C8.5 6.27614 8.27614 6.5 8 6.5C7.72386 6.5 7.5 6.27614 7.5 6V4.49805L6.99609 4.50195C6.54884 4.5051 6.18328 4.51348 5.87012 4.53906C5.40123 4.57738 5.10393 4.65088 4.86523 4.77246C4.39482 5.01214 4.01214 5.39484 3.77246 5.86523C3.65088 6.10393 3.57738 6.40123 3.53906 6.87012C3.50024 7.3453 3.5 7.9518 3.5 8.7998V9.5H20.5V8.7998C20.5 7.95179 20.4998 7.34532 20.4609 6.87012C20.4226 6.4013 20.3492 6.10397 20.2275 5.86523C19.9879 5.39478 19.6051 5.01213 19.1348 4.77246C18.8961 4.65088 18.5988 4.57738 18.1299 4.53906C17.8167 4.51348 17.4511 4.5051 17.0039 4.50195L16.5 4.49805V6Z" fill="#E99A00" stroke="#E99A00"/>
</svg>
