<svg width="24" height="24" viewBox="0 0 24 24" fill="none" xmlns="http://www.w3.org/2000/svg">
<path fill-rule="evenodd" clip-rule="evenodd" d="M13.1035 5.72849C13.2092 5.18643 13.7344 4.83273 14.2764 4.93849C15.4485 5.16717 16.5257 5.7404 17.3701 6.58481C18.2145 7.42923 18.7878 8.50641 19.0164 9.67849C19.1222 10.2205 18.7685 10.7457 18.2264 10.8515C17.6844 10.9572 17.1592 10.6035 17.0535 10.0615C16.901 9.28009 16.5188 8.56197 15.9559 7.99903C15.393 7.43609 14.6748 7.05393 13.8935 6.90148C13.3514 6.79572 12.9977 6.27056 13.1035 5.72849Z" fill="#E99A00"/>
<path fill-rule="evenodd" clip-rule="evenodd" d="M13.0911 1.80959C13.152 1.26069 13.6465 0.865145 14.1954 0.926124C16.4501 1.1766 18.5527 2.18631 20.1579 3.78946C21.763 5.39261 22.7754 7.49391 23.0287 9.74834C23.0904 10.2971 22.6954 10.792 22.1466 10.8537C21.5978 10.9154 21.1029 10.5205 21.0412 9.97164C20.8385 8.16812 20.0287 6.48708 18.7445 5.20457C17.4604 3.92205 15.7783 3.11428 13.9745 2.91389C13.4256 2.85291 13.0301 2.3585 13.0911 1.80959Z" fill="#E99A00"/>
<path fill-rule="evenodd" clip-rule="evenodd" d="M6.37283 17.6722C3.93892 15.2383 2.1691 12.2073 1.22852 8.89809C1.08101 8.37908 0.966622 7.97661 0.964979 7.42472C0.963101 6.79394 1.16861 6.00371 1.47754 5.45376C2.00882 4.50799 3.14958 3.29594 4.13491 2.79756C4.98625 2.36696 5.99165 2.36696 6.84299 2.79756C7.67864 3.22023 8.63721 4.19864 9.14613 4.98139C9.79262 5.97572 9.79262 7.25759 9.14613 8.25193C8.97289 8.51838 8.72596 8.76489 8.4393 9.05107C8.35004 9.14018 8.25179 9.20456 8.31704 9.34045C8.96486 10.6898 9.84835 11.9553 10.969 13.076C12.0897 14.1967 13.3553 15.0802 14.7046 15.728C14.8443 15.7951 14.9015 15.6984 14.994 15.6057C15.2802 15.3191 15.5267 15.0722 15.7931 14.8989C16.7875 14.2524 18.0693 14.2524 19.0637 14.8989C19.8464 15.4078 20.8248 16.3664 21.2475 17.2021C21.6781 18.0534 21.6781 19.0588 21.2475 19.9101C20.7528 20.8881 19.5507 22.0286 18.5913 22.5675C18.0413 22.8764 17.2511 23.082 16.6203 23.0801C16.0684 23.0784 15.666 22.964 15.147 22.8165C11.8377 21.876 8.80671 20.1061 6.37283 17.6722Z" fill="#E99A00"/>
</svg>
