<svg width="26" height="26" viewBox="0 0 26 26" fill="none" xmlns="http://www.w3.org/2000/svg">
<path d="M12.9996 13.2927C12.1023 13.2928 11.3746 14.0203 11.3746 14.9177C11.3746 15.815 12.1023 16.5425 12.9996 16.5427H13.0104C13.9078 16.5427 14.6354 15.8151 14.6354 14.9177C14.6354 14.0202 13.9078 13.2927 13.0104 13.2927H12.9996ZM12.9996 5.70966C12.1023 5.70983 11.3746 6.43731 11.3746 7.33466V11.1257C11.3746 12.023 12.1023 12.7505 12.9996 12.7507C13.8971 12.7507 14.6246 12.0232 14.6246 11.1257V7.33466C14.6246 6.4372 13.8971 5.70966 12.9996 5.70966ZM7.04161 19.8015L6.51817 19.7839C6.11014 19.7704 5.79355 19.7372 5.51915 19.6638C4.21066 19.3131 3.18811 18.2905 2.83751 16.9821C2.71153 16.5117 2.70812 15.9524 2.7086 15.0671V8.15594C2.70858 7.27604 2.7088 6.58143 2.7545 6.02216C2.80151 5.44701 2.89926 4.96662 3.12169 4.52997C3.4852 3.81652 4.06547 3.23626 4.77892 2.87274C5.21558 2.65028 5.69596 2.55257 6.2711 2.50555C6.83036 2.45987 7.52504 2.45964 8.40489 2.45966H17.5943C18.4744 2.45964 19.1698 2.45986 19.7291 2.50555C20.3042 2.55257 20.7846 2.65027 21.2213 2.87274C21.9347 3.23626 22.515 3.81651 22.8785 4.52997C23.101 4.96662 23.1987 5.44707 23.2457 6.02216C23.2914 6.58144 23.2916 7.27605 23.2916 8.15594V14.0954C23.2916 14.9755 23.2914 15.6708 23.2457 16.2302C23.1987 16.8052 23.101 17.2856 22.8785 17.7224C22.515 18.4358 21.9347 19.016 21.2213 19.3796C20.7846 19.602 20.3041 19.6998 19.7291 19.7468C19.1697 19.7924 18.4744 19.7927 17.5943 19.7927H14.8238C14.3028 19.7927 14.0173 19.7941 13.7984 19.8171L13.5953 19.8483C13.3564 19.8975 13.1251 19.9785 12.9078 20.0895C12.6738 20.2092 12.4562 20.3791 11.9137 20.8132L9.29942 22.905C9.0949 23.0686 8.91289 23.2135 8.75938 23.3151C8.60734 23.4157 8.38967 23.5403 8.12657 23.5407C7.79665 23.5411 7.48376 23.3913 7.27794 23.1335C7.11372 22.9277 7.07568 22.6794 7.05919 22.4977C7.04257 22.3146 7.04157 22.0821 7.04161 21.82V19.8015Z" fill="white" stroke="white" stroke-width="1.08333"/>
</svg>
