<svg width="64" height="64" viewBox="0 0 64 64" fill="none" xmlns="http://www.w3.org/2000/svg">
<path d="M38.5498 36.602H29.9098C24.5918 36.602 19.7338 39.278 16.9118 43.7599C16.3818 44.6019 15.2698 44.856 14.4298 44.324C13.5898 43.794 13.3358 42.6839 13.8658 41.8419C16.4038 37.8079 20.2858 34.976 24.7418 33.728C20.1018 30.644 17.0318 25.374 17.0318 19.398C17.0318 9.91595 24.7458 2.19995 34.2298 2.19995C43.7138 2.19995 51.4258 9.91395 51.4258 19.396C51.4258 25.3759 48.3558 30.6479 43.7118 33.7299C51.6958 35.9879 57.5698 43.324 57.5698 52.018V54.478C57.5698 57.186 55.6578 59.51 53.0338 60.006C46.9178 61.1959 40.5918 61.798 34.2298 61.798H33.3298C32.3358 61.798 31.5298 60.992 31.5298 59.998C31.5298 59.004 32.3358 58.198 33.3298 58.198H34.2298C40.3618 58.198 46.4558 57.618 52.3558 56.47C53.2898 56.294 53.9698 55.456 53.9698 54.4799V52.02C53.9698 43.518 47.0518 36.602 38.5498 36.602ZM47.8278 19.396C47.8278 11.898 41.7278 5.79995 34.2318 5.79995C26.7338 5.79995 20.6338 11.898 20.6338 19.396C20.6338 26.894 26.7338 32.9939 34.2318 32.9939C41.7278 32.9939 47.8278 26.894 47.8278 19.396Z" fill="#E99A00"/>
<path d="M6.95779 54.3019L11.3818 49.8779C12.0858 49.1739 13.2238 49.1739 13.9258 49.8779C14.6278 50.5819 14.6298 51.7219 13.9258 52.4239L12.5758 53.7739H25.7298C26.7238 53.7739 27.5298 54.5799 27.5298 55.5739C27.5298 56.5679 26.7238 57.3739 25.7298 57.3739H12.5758L13.9258 58.7239C14.6298 59.4279 14.6298 60.5679 13.9258 61.2699C13.5738 61.6219 13.1138 61.7979 12.6538 61.7979C12.1938 61.7979 11.7338 61.6219 11.3818 61.2699L6.95779 56.8459C6.25379 56.1459 6.25379 55.0059 6.95779 54.3019Z" fill="black"/>
</svg>
