<svg width="64" height="64" viewBox="0 0 64 64" fill="none" xmlns="http://www.w3.org/2000/svg">
<path d="M25.4502 36.602H34.0902C39.4082 36.602 44.2662 39.278 47.0882 43.7599C47.6182 44.6019 48.7302 44.856 49.5702 44.324C50.4102 43.794 50.6642 42.6839 50.1342 41.8419C47.5962 37.8079 43.7142 34.976 39.2582 33.728C43.8982 30.644 46.9682 25.374 46.9682 19.398C46.9682 9.91595 39.2542 2.19995 29.7702 2.19995C20.2862 2.19995 12.5742 9.91395 12.5742 19.396C12.5742 25.3759 15.6442 30.6479 20.2882 33.7299C12.3042 35.9879 6.43018 43.324 6.43018 52.018V54.478C6.43018 57.186 8.34218 59.51 10.9662 60.006C17.0822 61.1959 23.4082 61.798 29.7702 61.798H30.6702C31.6642 61.798 32.4702 60.992 32.4702 59.998C32.4702 59.004 31.6642 58.198 30.6702 58.198H29.7702C23.6382 58.198 17.5442 57.618 11.6442 56.47C10.7102 56.294 10.0302 55.456 10.0302 54.4799V52.02C10.0302 43.518 16.9482 36.602 25.4502 36.602ZM16.1722 19.396C16.1722 11.898 22.2722 5.79995 29.7682 5.79995C37.2662 5.79995 43.3662 11.898 43.3662 19.396C43.3662 26.894 37.2662 32.9939 29.7682 32.9939C22.2722 32.9939 16.1722 26.894 16.1722 19.396Z" fill="#E99A00"/>
<path d="M57.0422 54.3019L52.6182 49.8779C51.9142 49.1739 50.7762 49.1739 50.0742 49.8779C49.3722 50.5819 49.3702 51.7219 50.0742 52.4239L51.4242 53.7739H38.2702C37.2762 53.7739 36.4702 54.5799 36.4702 55.5739C36.4702 56.5679 37.2762 57.3739 38.2702 57.3739H51.4242L50.0742 58.7239C49.3702 59.4279 49.3702 60.5679 50.0742 61.2699C50.4262 61.6219 50.8862 61.7979 51.3462 61.7979C51.8062 61.7979 52.2662 61.6219 52.6182 61.2699L57.0422 56.8459C57.7462 56.1459 57.7462 55.0059 57.0422 54.3019Z" fill="black"/>
</svg>
