<svg width="14" height="16" viewBox="0 0 14 16" fill="none" xmlns="http://www.w3.org/2000/svg">
<path d="M5.33333 11.5002C5.05719 11.5002 4.83333 11.2763 4.83333 11.0002L4.83333 7.00016C4.83333 6.72402 5.05719 6.50016 5.33333 6.50016C5.60948 6.50016 5.83333 6.72402 5.83333 7.00016L5.83333 11.0002C5.83333 11.2763 5.60948 11.5002 5.33333 11.5002Z" fill="#D50000"/>
<path d="M9.16667 7.00016C9.16667 6.72402 8.94281 6.50016 8.66667 6.50016C8.39052 6.50016 8.16667 6.72402 8.16667 7.00016V11.0002C8.16667 11.2763 8.39052 11.5002 8.66667 11.5002C8.94281 11.5002 9.16667 11.2763 9.16667 11.0002V7.00016Z" fill="#D50000"/>
<path fill-rule="evenodd" clip-rule="evenodd" d="M7.04414 0.833496H7.00145C6.6646 0.833487 6.37885 0.833479 6.14172 0.855066C5.89009 0.877974 5.6557 0.927589 5.42905 1.04811C5.33959 1.09567 5.25424 1.15057 5.17386 1.21223C4.97018 1.36848 4.82782 1.56118 4.70261 1.78065C4.58461 1.98746 4.4661 2.24746 4.32639 2.55398L4.04704 3.16683H1C0.723858 3.16683 0.5 3.39069 0.5 3.66683C0.5 3.94297 0.723858 4.16683 1 4.16683H1.52929L1.90556 10.3996C1.95584 11.2327 1.99575 11.8938 2.07877 12.4218C2.16391 12.9634 2.30081 13.4144 2.5754 13.809C2.82661 14.17 3.15025 14.4747 3.5257 14.7037C3.93611 14.954 4.39457 15.0635 4.94027 15.1158C5.47239 15.1669 6.13465 15.1669 6.96924 15.1668H7.02102C7.85451 15.1669 8.51598 15.1669 9.04746 15.1159C9.59253 15.0636 10.0505 14.9544 10.4606 14.7045C10.8358 14.476 11.1594 14.1718 11.4107 13.8114C11.6853 13.4175 11.8226 12.9671 11.9084 12.4263C11.9921 11.899 12.0329 11.2388 12.0843 10.4069L12.4701 4.16683H13C13.2761 4.16683 13.5 3.94297 13.5 3.66683C13.5 3.39069 13.2761 3.16683 13 3.16683H10.0171L9.68942 2.4909C9.54612 2.19525 9.42447 1.94428 9.3047 1.74475C9.17757 1.53295 9.03465 1.34733 8.83341 1.19724C8.75388 1.13792 8.66967 1.08516 8.58161 1.03947C8.35877 0.923861 8.12939 0.876217 7.88335 0.85421C7.65157 0.83348 7.37267 0.833487 7.04414 0.833496ZM11.4682 4.16683H9.71484C9.70772 4.16698 9.70061 4.16698 9.69352 4.16683H4.37933C4.372 4.16699 4.36465 4.16699 4.3573 4.16683H2.53111L2.90218 10.3135C2.95438 11.1782 2.99194 11.7914 3.06664 12.2665C3.14008 12.7337 3.24293 13.0175 3.39621 13.2378C3.56808 13.4848 3.78952 13.6933 4.04641 13.8499C4.2755 13.9897 4.56505 14.0752 5.03577 14.1204C5.51457 14.1663 6.12891 14.1668 6.99518 14.1668C7.86031 14.1668 8.47382 14.1663 8.95203 14.1205C9.42214 14.0754 9.71141 13.99 9.94035 13.8505C10.1971 13.6941 10.4184 13.486 10.5904 13.2394C10.7437 13.0195 10.8468 12.7361 10.9208 12.2696C10.9961 11.7952 11.0344 11.1829 11.0878 10.3194L11.4682 4.16683ZM8.90579 3.16683H5.14603L5.22737 2.98839C5.37843 2.65698 5.4784 2.43882 5.57118 2.27621C5.65925 2.12185 5.72244 2.05176 5.78254 2.00565C5.81907 1.97762 5.85787 1.95267 5.89853 1.93105C5.96541 1.89549 6.0554 1.86706 6.23239 1.85095C6.41883 1.83397 6.6588 1.8335 7.02302 1.8335C7.37835 1.8335 7.61228 1.83396 7.79426 1.85023C7.96693 1.86568 8.05519 1.89293 8.12109 1.92712C8.16112 1.94789 8.19939 1.97187 8.23554 1.99883C8.29505 2.04322 8.35808 2.11075 8.4473 2.25939C8.54132 2.41604 8.64378 2.62634 8.79878 2.94609L8.90579 3.16683Z" fill="#D50000"/>
</svg>
