<svg width="24" height="24" viewBox="0 0 24 24" fill="none" xmlns="http://www.w3.org/2000/svg">
<path d="M21.5429 2.45726C20.0478 0.962165 17.6238 0.962163 16.1287 2.45726L14.9672 3.61878C14.5712 4.0148 14.3731 4.21281 14.299 4.44114C14.2337 4.64198 14.2337 4.85833 14.299 5.05917C14.3731 5.2875 14.5712 5.48551 14.9672 5.88153L18.1186 9.033C18.5147 9.42901 18.7127 9.62702 18.941 9.70121C19.1418 9.76647 19.3582 9.76647 19.559 9.70121C19.7874 9.62702 19.9854 9.42901 20.3814 9.033L21.5429 7.87148C23.038 6.37638 23.038 3.95236 21.5429 2.45726Z" fill="white"/>
<path d="M16.7043 12.71C17.1003 12.314 17.2984 12.116 17.3725 11.8876C17.4378 11.6868 17.4378 11.4704 17.3725 11.2696C17.2984 11.0413 17.1003 10.8433 16.7043 10.4472L13.5529 7.29577C13.1568 6.89976 12.9588 6.70175 12.7305 6.62756C12.5297 6.5623 12.3133 6.5623 12.1125 6.62756C11.8841 6.70175 11.6861 6.89975 11.2901 7.29577L2.87242 15.7134C2.62713 15.9583 2.41076 16.1743 2.24151 16.431C2.0927 16.6567 1.97507 16.9014 1.89182 17.1586C1.79713 17.4511 1.76361 17.755 1.72561 18.0995L1.34181 21.554C1.30827 21.8559 1.41378 22.1567 1.62859 22.3715C1.8434 22.5863 2.1442 22.6918 2.44613 22.6583L5.90063 22.2745C6.24514 22.2365 6.54904 22.203 6.84153 22.1083C7.0987 22.025 7.34343 21.9074 7.56909 21.7586C7.82577 21.5893 8.04179 21.373 8.28669 21.1277L16.7043 12.71Z" fill="white"/>
</svg>
