<svg width="175" height="175" viewBox="0 0 175 175" fill="none" xmlns="http://www.w3.org/2000/svg">
<path d="M87.5 175C135.825 175 175 135.825 175 87.5C175 39.1751 135.825 0 87.5 0C39.1751 0 0 39.1751 0 87.5C0 135.825 39.1751 175 87.5 175Z" fill="#F69500" fill-opacity="0.2"/>
<path d="M140 175H35V61.8332C39.949 61.8276 44.6937 59.8592 48.1932 56.3597C51.6927 52.8602 53.6611 48.1155 53.6667 43.1665H121.333C121.328 45.6181 121.809 48.0464 122.748 50.3109C123.688 52.5754 125.067 54.6312 126.806 56.3592C128.534 58.0988 130.59 59.4784 132.855 60.418C135.119 61.3576 137.548 61.8386 140 61.8332V175Z" fill="white"/>
<path d="M87.5 119C102.964 119 115.5 106.464 115.5 91C115.5 75.536 102.964 63 87.5 63C72.036 63 59.5 75.536 59.5 91C59.5 106.464 72.036 119 87.5 119Z" fill="#F6952D"/>
<path d="M97.3995 104.2L87.5 94.3L77.6005 104.2L74.3007 100.9L84.2002 91.0002L74.3007 81.1007L77.6005 77.8009L87.5 87.7004L97.3995 77.8009L100.699 81.1007L90.7998 91.0002L100.699 100.9L97.3995 104.2Z" fill="white"/>
<path d="M102.666 126H72.333C70.4 126 68.833 127.567 68.833 129.5C68.833 131.433 70.4 133 72.333 133H102.666C104.599 133 106.166 131.433 106.166 129.5C106.166 127.567 104.599 126 102.666 126Z" fill="#DFEAFB"/>
<path d="M113.166 140H61.833C59.9 140 58.333 141.567 58.333 143.5C58.333 145.433 59.9 147 61.833 147H113.166C115.099 147 116.666 145.433 116.666 143.5C116.666 141.567 115.099 140 113.166 140Z" fill="#DFEAFB"/>
</svg>
