<svg width="24" height="25" viewBox="0 0 24 25" fill="none" xmlns="http://www.w3.org/2000/svg">
<path fill-rule="evenodd" clip-rule="evenodd" d="M12 21.5C16.9706 21.5 21 17.4706 21 12.5C21 7.52944 16.9706 3.5 12 3.5C7.02944 3.5 3 7.52944 3 12.5C3 17.4706 7.02944 21.5 12 21.5ZM10.875 9.125C10.875 8.50368 11.3787 8 12 8C12.6213 8 13.125 8.50368 13.125 9.125C13.125 9.74632 12.6213 10.25 12 10.25C11.3787 10.25 10.875 9.74632 10.875 9.125ZM12 12.5C12.6213 12.5 13.125 13.0037 13.125 13.625V15.875C13.125 16.4963 12.6213 17 12 17C11.3787 17 10.875 16.4963 10.875 15.875V13.625C10.875 13.0037 11.3787 12.5 12 12.5Z" fill="#D50000"/>
</svg>
