<svg width="17" height="16" viewBox="0 0 17 16" fill="none" xmlns="http://www.w3.org/2000/svg">
<path d="M17 8.25V7.25C17 6.285 16.215 5.5 15.25 5.5H10.75C9.785 5.5 9 6.285 9 7.25V8.25C9 8.388 9.02 8.52 9.05 8.648C8.433 8.919 8 9.534 8 10.25V11.25C8 11.966 8.433 12.581 9.05 12.852C9.02 12.98 9 13.113 9 13.25V14.25C9 15.215 9.785 16 10.75 16H15.25C16.215 16 17 15.215 17 14.25V13.25C17 12.534 16.567 11.919 15.95 11.648C15.98 11.52 16 11.387 16 11.25V10.25C16 10.112 15.98 9.98 15.95 9.852C16.567 9.581 17 8.966 17 8.25ZM10.5 7.25C10.5 7.112 10.612 7 10.75 7H15.25C15.388 7 15.5 7.112 15.5 7.25V8.25C15.5 8.388 15.388 8.5 15.25 8.5H10.75C10.612 8.5 10.5 8.388 10.5 8.25V7.25ZM15.5 14.25C15.5 14.388 15.388 14.5 15.25 14.5H10.75C10.612 14.5 10.5 14.388 10.5 14.25V13.25C10.5 13.112 10.612 13 10.75 13H15.25C15.388 13 15.5 13.112 15.5 13.25V14.25Z" fill="#E99A00"/>
<path d="M13.25 0H2.75C1.231 0 0 1.231 0 2.75V9.25C0 10.769 1.231 12 2.75 12H6.25C6.664 12 7 11.664 7 11.25C7 10.836 6.664 10.5 6.25 10.5H4.424C4.125 9.033 2.967 7.875 1.5 7.576V4.425C2.967 4.126 4.125 2.968 4.424 1.501H11.575C11.925 3.217 13.45 4.51 15.269 4.501C15.674 4.499 16 4.156 16 3.751V2.751C16 1.232 14.769 0.00100005 13.25 0.00100005V0Z" fill="#E99A00"/>
<path d="M7.5 7.907V7.25C7.5 5.724 8.561 4.449 9.981 4.102C9.48 3.579 8.779 3.25 8 3.25C6.483 3.25 5.25 4.483 5.25 6C5.25 7.161 5.975 8.151 6.994 8.553C7.138 8.319 7.301 8.098 7.5 7.907Z" fill="#E99A00"/>
</svg>
