<svg width="28" height="28" viewBox="0 0 28 28" fill="none" xmlns="http://www.w3.org/2000/svg">
<path d="M11.6669 14C11.6669 12.7113 12.7115 11.6667 14.0002 11.6667C15.2889 11.6667 16.3336 12.7113 16.3336 14C16.3336 15.2887 15.2889 16.3333 14.0002 16.3333C12.7115 16.3333 11.6669 15.2887 11.6669 14Z" fill="white"/>
<path fill-rule="evenodd" clip-rule="evenodd" d="M14.0001 4.66666C10.6615 4.66666 7.93971 6.14216 5.92301 7.82532C3.90905 9.5062 2.52827 11.45 1.83673 12.5449L1.80863 12.5893C1.67141 12.8053 1.49325 13.0858 1.40317 13.4787C1.33045 13.7959 1.33045 14.204 1.40317 14.5213C1.49324 14.9142 1.67141 15.1947 1.80863 15.4107L1.83674 15.4551C2.52827 16.55 3.90905 18.4938 5.92301 20.1747C7.93971 21.8578 10.6615 23.3333 14.0001 23.3333C17.3388 23.3333 20.0606 21.8578 22.0773 20.1747C24.0912 18.4938 25.472 16.55 26.1636 15.4551L26.1917 15.4107C26.3289 15.1947 26.507 14.9143 26.5971 14.5213C26.6698 14.204 26.6698 13.7959 26.5971 13.4787C26.507 13.0857 26.3289 12.8053 26.1917 12.5893L26.1636 12.5449C25.472 11.45 24.0912 9.5062 22.0773 7.82532C20.0606 6.14216 17.3388 4.66666 14.0001 4.66666ZM14.0001 9.33332C11.4228 9.33332 9.33347 11.4227 9.33347 14C9.33347 16.5773 11.4228 18.6667 14.0001 18.6667C16.5774 18.6667 18.6668 16.5773 18.6668 14C18.6668 11.4227 16.5774 9.33332 14.0001 9.33332Z" fill="white"/>
</svg>
