<svg width="28" height="28" viewBox="0 0 28 28" fill="none" xmlns="http://www.w3.org/2000/svg">
<path fill-rule="evenodd" clip-rule="evenodd" d="M2.67521 2.67505C3.13083 2.21944 3.86951 2.21944 4.32513 2.67505C11.3356 9.68556 18.321 16.671 25.3251 23.6751C25.7807 24.1306 25.7807 24.8694 25.3251 25.325C24.8695 25.7805 24.1308 25.7805 23.6752 25.325L19.9959 21.6456C18.3102 22.6319 16.3004 23.3333 14.0002 23.3333C10.6615 23.3333 7.93972 21.8579 5.92303 20.1747C3.90907 18.4938 2.52828 16.55 1.83675 15.4551L1.80864 15.4107C1.67141 15.1947 1.49321 14.9142 1.40315 14.5213C1.33044 14.2039 1.33046 13.7958 1.40322 13.4785C1.49333 13.0855 1.67203 12.8043 1.80962 12.5878L1.83795 12.5431C2.54072 11.4306 3.96789 9.42116 6.06141 7.71116L2.67521 4.32497C2.2196 3.86935 2.2196 3.13067 2.67521 2.67505ZM9.97974 11.6295C9.56936 12.3244 9.3335 13.1356 9.3335 13.9999C9.3335 16.5773 11.4228 18.6666 14.0002 18.6666C14.8646 18.6666 15.6756 18.4307 16.3706 18.0203L14.6047 16.2545C14.4121 16.3059 14.2096 16.3332 14.0002 16.3332C12.7115 16.3332 11.6668 15.2886 11.6668 13.9999C11.6668 13.7905 11.6943 13.5879 11.7456 13.3954L9.97974 11.6295Z" fill="white"/>
<path d="M18.6578 13.7079C18.513 11.3633 16.6369 9.48713 14.2922 9.34234L10.257 5.30714C11.3999 4.90814 12.6496 4.66668 14.0001 4.66668C17.3388 4.66668 20.0606 6.14218 22.0773 7.82535C24.0912 9.50622 25.4719 11.45 26.1635 12.5449L26.1917 12.5893C26.3289 12.8053 26.507 13.0857 26.5971 13.4787C26.6698 13.796 26.6698 14.2041 26.5971 14.5213C26.507 14.9143 26.3289 15.1947 26.1917 15.4107L26.1635 15.4551C25.6695 16.2373 24.8235 17.453 23.6462 18.6964L18.6578 13.7079Z" fill="white"/>
</svg>
