<svg width="18" height="18" viewBox="0 0 18 18" fill="none" xmlns="http://www.w3.org/2000/svg">
<path d="M6.56934 1.125H9.01758C9.17256 1.13233 9.32332 1.26451 9.36426 1.41602L9.375 1.48242V4.82422C9.375 4.91629 9.37525 5.01247 9.37695 5.10742L9.38867 5.38477C9.40457 5.57964 9.44416 5.83673 9.5791 6.10156C9.75882 6.45428 10.0458 6.74118 10.3984 6.9209C10.6636 7.05601 10.9214 7.09541 11.1162 7.11133C11.2905 7.12554 11.4912 7.12502 11.6758 7.125H15.0176C15.1725 7.13239 15.3234 7.26456 15.3643 7.41602L15.375 7.48242V12.9307C15.375 13.5399 15.3744 14.021 15.3428 14.4082C15.3143 14.7568 15.2593 15.0553 15.1426 15.3271L15.0889 15.4414C14.8686 15.8736 14.5333 16.2351 14.1221 16.4873L13.9414 16.5889C13.639 16.7429 13.3063 16.8103 12.9082 16.8428C12.521 16.8744 12.0399 16.875 11.4307 16.875H6.56934C5.96014 16.875 5.47903 16.8744 5.0918 16.8428C4.69364 16.8103 4.36092 16.7429 4.05859 16.5889C3.56466 16.3372 3.1628 15.9353 2.91113 15.4414C2.75716 15.139 2.68975 14.8064 2.65723 14.4082C2.62559 14.021 2.62499 13.5399 2.625 12.9307V5.06934C2.62499 4.46014 2.62559 3.97901 2.65723 3.5918C2.68976 3.19362 2.75715 2.86091 2.91113 2.55859C3.1628 2.06467 3.56467 1.6628 4.05859 1.41113C4.36091 1.25715 4.69362 1.18976 5.0918 1.15723C5.479 1.12559 5.96014 1.12499 6.56934 1.125ZM6.75 10.875C6.12869 10.875 5.625 11.3787 5.625 12C5.625 12.6213 6.12869 13.125 6.75 13.125H11.25C11.8713 13.125 12.375 12.6213 12.375 12C12.375 11.3787 11.8713 10.875 11.25 10.875H6.75ZM11.6758 2.14648C11.7007 2.17032 11.7291 2.19875 11.7656 2.23535L14.2646 4.73438C14.3012 4.77092 14.3297 4.79936 14.3535 4.82422C14.3723 4.84382 14.3851 4.85901 14.3945 4.87012C14.3525 4.87395 14.2926 4.875 14.1807 4.875H11.8496C11.7387 4.875 11.6775 4.87466 11.6338 4.87109C11.6321 4.87095 11.6305 4.87026 11.6289 4.87012C11.6288 4.86888 11.629 4.86756 11.6289 4.86621C11.6253 4.82255 11.625 4.76133 11.625 4.65039V2.31934C11.625 2.20665 11.625 2.14663 11.6289 2.10449C11.6402 2.11394 11.6555 2.12709 11.6758 2.14648Z" fill="#E99A00" stroke="#E99A00" stroke-width="0.75"/>
</svg>
