<svg width="24" height="24" viewBox="0 0 24 24" fill="none" xmlns="http://www.w3.org/2000/svg">
<path fill-rule="evenodd" clip-rule="evenodd" d="M4.53342 2.12109C4.5484 2.12109 4.56344 2.12109 4.57853 2.12109H19.4666C19.995 2.12107 20.4583 2.12104 20.8217 2.15372C21.1705 2.18508 21.649 2.25869 22.0368 2.57887C22.5184 2.97653 22.7866 3.57637 22.7618 4.20045C22.7419 4.70293 22.4776 5.10865 22.2685 5.38946C22.0505 5.68211 21.7416 6.0273 21.3892 6.42112L15.6528 12.8323C15.5721 12.9226 15.5321 12.9676 15.5043 13.0015L15.5022 13.004L15.5021 13.0073C15.5002 13.051 15.5 13.1112 15.5 13.2324V18.5795C15.5 18.5904 15.5001 18.6032 15.5003 18.6175C15.5017 18.755 15.5048 19.0404 15.4054 19.3069C15.3218 19.531 15.1858 19.7319 15.0088 19.8927C14.7983 20.084 14.5321 20.1872 14.4039 20.2369C14.3905 20.2421 14.3787 20.2467 14.3685 20.2507L10.9406 21.6219C10.7817 21.6855 10.6061 21.7558 10.4511 21.8021C10.2844 21.8518 10.0106 21.9168 9.69481 21.8512C9.30779 21.7708 8.96815 21.5408 8.74975 21.2114C8.57152 20.9425 8.53021 20.6641 8.51449 20.4909C8.49988 20.3299 8.49993 20.1407 8.49999 19.9695V13.2324C8.49999 13.1112 8.49978 13.051 8.49792 13.0073L8.49777 13.004L8.49572 13.0015C8.46793 12.9676 8.42792 12.9226 8.34714 12.8323L2.6409 6.45476C2.63083 6.44351 2.6208 6.4323 2.61081 6.42113C2.25841 6.02731 1.94952 5.68212 1.73152 5.38946C1.52234 5.10865 1.25811 4.70293 1.23815 4.20045C1.21337 3.57637 1.48156 2.97653 1.96318 2.57887C2.35095 2.25869 2.8295 2.18508 3.17825 2.15372C3.54172 2.12104 4.00493 2.12107 4.53342 2.12109Z" fill="white"/>
</svg>
