<svg width="18" height="18" viewBox="0 0 18 18" fill="none" xmlns="http://www.w3.org/2000/svg">
<path d="M2.95703 5.5857C3.02314 5.38953 3.23543 5.28437 3.43164 5.35035C3.62786 5.4164 3.73391 5.62872 3.66797 5.82496C3.47828 6.38841 3.375 6.99228 3.375 7.62086V10.6209C3.375 13.1758 5.07867 15.3343 7.41309 16.0193C7.61168 16.0776 7.726 16.2855 7.66797 16.4841C7.60965 16.6829 7.40083 16.7973 7.20215 16.739C4.55692 15.9629 2.625 13.5178 2.625 10.6209V7.62086C2.625 6.90988 2.74173 6.22527 2.95703 5.5857ZM14.8525 12.0007C15.0509 12.0607 15.1634 12.2704 15.1035 12.4685C14.5221 14.3916 13.0569 15.93 11.1807 16.613C10.9861 16.6838 10.771 16.583 10.7002 16.3884C10.6297 16.194 10.7296 15.9789 10.9238 15.908C12.579 15.3054 13.8719 13.9474 14.3848 12.2517C14.4447 12.0536 14.6543 11.9409 14.8525 12.0007ZM12.375 8.02613C12.5821 8.02613 12.75 8.19401 12.75 8.40113V10.6209C12.75 12.692 11.0711 14.3709 9 14.3709C8.29343 14.3709 7.63128 14.1752 7.06641 13.8347C6.88914 13.7278 6.8319 13.4974 6.93848 13.3201C7.0454 13.1427 7.27673 13.0852 7.4541 13.1921C7.90537 13.4641 8.43374 13.6209 9 13.6209C10.6569 13.6209 12 12.2777 12 10.6209V8.40113C12 8.19401 12.1679 8.02613 12.375 8.02613ZM9 7.24586C9.20711 7.24586 9.375 7.41375 9.375 7.62086V10.6209C9.375 10.828 9.20712 10.9959 9 10.9959C8.79288 10.9959 8.625 10.828 8.625 10.6209V7.62086C8.625 7.41375 8.79289 7.24586 9 7.24586ZM9 3.87086C9.70832 3.87086 10.3717 4.06786 10.9375 4.40992C11.1147 4.51706 11.1716 4.74729 11.0645 4.92457C10.9707 5.0797 10.7825 5.1424 10.6182 5.08375L10.5498 5.05152C10.0977 4.77823 9.56776 4.62086 9 4.62086C7.34314 4.62086 6 5.964 6 7.62086V9.83375C5.99979 10.0407 5.83198 10.2087 5.625 10.2087C5.41802 10.2087 5.25021 10.0407 5.25 9.83375V7.62086C5.25 5.54979 6.92893 3.87086 9 3.87086ZM9 1.24586C12.5208 1.24586 15.375 4.10004 15.375 7.62086V8.54859C15.3749 8.75556 15.207 8.92359 15 8.92359C14.793 8.92359 14.6251 8.75556 14.625 8.54859V7.62086C14.625 4.51426 12.1066 1.99586 9 1.99586C7.8101 1.99586 6.70732 2.36499 5.79883 2.99488C5.62864 3.11275 5.39531 3.0703 5.27734 2.90015C5.15935 2.72996 5.20187 2.49667 5.37207 2.37867C6.40199 1.66463 7.6526 1.24586 9 1.24586Z" fill="#E99A00" stroke="#E99A00" stroke-width="0.75"/>
</svg>
