<svg width="25" height="24" viewBox="0 0 25 24" fill="none" xmlns="http://www.w3.org/2000/svg">
<path fill-rule="evenodd" clip-rule="evenodd" d="M12.7727 1.70293C12.4304 1.61025 12.0696 1.61025 11.7273 1.70293C11.3299 1.81052 10.9954 2.07317 10.7284 2.2828L10.6537 2.34122L3.79373 7.67669C3.4171 7.96897 3.08529 8.22648 2.83803 8.56078C2.62104 8.85416 2.45939 9.18467 2.36103 9.53607C2.24895 9.93649 2.2494 10.3565 2.24992 10.8333L2.24999 18.2051C2.24997 18.7323 2.24995 19.187 2.28056 19.5616C2.31286 19.957 2.38417 20.3502 2.57697 20.7286C2.86459 21.293 3.32353 21.752 3.88802 22.0396C4.2664 22.2324 4.65961 22.3037 5.05496 22.336C5.42953 22.3666 5.88428 22.3666 6.41142 22.3666H18.0886C18.6157 22.3666 19.0704 22.3666 19.445 22.336C19.8404 22.3037 20.2336 22.2324 20.612 22.0396C21.1764 21.752 21.6354 21.293 21.923 20.7286C22.1158 20.3502 22.1871 19.957 22.2194 19.5616C22.25 19.187 22.25 18.7323 22.25 18.2052L22.2501 10.8333C22.2506 10.3565 22.251 9.93649 22.1389 9.53607C22.0406 9.18467 21.8789 8.85416 21.6619 8.56078C21.4147 8.22647 21.0829 7.96897 20.7062 7.67668L13.8462 2.34122L13.7716 2.2828C13.5046 2.07317 13.17 1.81052 12.7727 1.70293ZM8.25 16.3666C7.69772 16.3666 7.25 16.8143 7.25 17.3666C7.25 17.9189 7.69772 18.3666 8.25 18.3666H16.25C16.8023 18.3666 17.25 17.9189 17.25 17.3666C17.25 16.8143 16.8023 16.3666 16.25 16.3666H8.25Z" fill="#E99A00"/>
</svg>
