<svg width="24" height="20" viewBox="0 0 24 20" fill="none" xmlns="http://www.w3.org/2000/svg">
<path d="M4.77448 6.30493V10.705M16.2162 6.30518V10.7052M19.2945 5.92487V11.0749C19.2945 14.1549 17.5345 15.4749 14.8945 15.4749H6.10446C5.65446 15.4749 5.22446 15.4349 4.82446 15.3449C4.57446 15.3049 4.33447 15.2349 4.11447 15.1549C2.61447 14.5949 1.70447 13.2949 1.70447 11.0749V5.92487C1.70447 2.84487 3.46446 1.5249 6.10446 1.5249H14.8945C17.1345 1.5249 18.7445 2.4749 19.1745 4.6449C19.2445 5.0449 19.2945 5.45487 19.2945 5.92487ZM22.2956 8.92499V14.075C22.2956 17.155 20.5356 18.475 17.8956 18.475H9.10556C8.36556 18.475 7.69557 18.375 7.11557 18.155C5.92557 17.715 5.11556 16.805 4.82556 15.345C5.22556 15.435 5.65556 15.475 6.10556 15.475H14.8956C17.5356 15.475 19.2956 14.155 19.2956 11.075V5.92499C19.2956 5.45499 19.2556 5.03502 19.1756 4.64502C21.0756 5.04502 22.2956 6.38499 22.2956 8.92499ZM13.1329 8.50476C13.1329 9.96279 11.951 11.1448 10.4929 11.1448C9.03489 11.1448 7.85291 9.96279 7.85291 8.50476C7.85291 7.04673 9.03489 5.86475 10.4929 5.86475C11.951 5.86475 13.1329 7.04673 13.1329 8.50476Z" stroke="white" stroke-width="1.5" stroke-miterlimit="10" stroke-linecap="round" stroke-linejoin="round"/>
</svg>
