<svg width="18" height="18" viewBox="0 0 18 18" fill="none" xmlns="http://www.w3.org/2000/svg">
<path d="M6.56934 1.125H9.01758C9.17256 1.13233 9.32332 1.26451 9.36426 1.41602L9.375 1.48242V4.82422C9.375 4.91629 9.37525 5.01247 9.37695 5.10742L9.38867 5.38477C9.40457 5.57964 9.44416 5.83673 9.5791 6.10156C9.75882 6.45428 10.0458 6.74118 10.3984 6.9209C10.6636 7.05601 10.9214 7.09541 11.1162 7.11133C11.2905 7.12554 11.4912 7.12502 11.6758 7.125H15.0176C15.1725 7.13239 15.3234 7.26456 15.3643 7.41602L15.375 7.48242V12.9307C15.375 13.5399 15.3744 14.021 15.3428 14.4082C15.3143 14.7568 15.2593 15.0553 15.1426 15.3271L15.0889 15.4414C14.8686 15.8736 14.5333 16.2351 14.1221 16.4873L13.9414 16.5889C13.639 16.7429 13.3063 16.8103 12.9082 16.8428C12.521 16.8744 12.0399 16.875 11.4307 16.875H6.56934C5.96014 16.875 5.47903 16.8744 5.0918 16.8428C4.69364 16.8103 4.36092 16.7429 4.05859 16.5889C3.56466 16.3372 3.1628 15.9353 2.91113 15.4414C2.75716 15.139 2.68975 14.8064 2.65723 14.4082C2.62559 14.021 2.62499 13.5399 2.625 12.9307V5.06934C2.62499 4.46014 2.62559 3.97901 2.65723 3.5918C2.68976 3.19362 2.75715 2.86091 2.91113 2.55859C3.1628 2.06467 3.56467 1.6628 4.05859 1.41113C4.36091 1.25715 4.69362 1.18976 5.0918 1.15723C5.479 1.12559 5.96014 1.12499 6.56934 1.125ZM9 7.5C7.65379 7.5 6.5625 8.59129 6.5625 9.9375V10.2158C6.46932 10.2433 6.37171 10.279 6.27344 10.3291C5.92072 10.5088 5.63383 10.7958 5.4541 11.1484C5.319 11.4136 5.27959 11.6714 5.26367 11.8662C5.24945 12.0405 5.24998 12.2412 5.25 12.4258V13.0742C5.24998 13.2588 5.24945 13.4595 5.26367 13.6338C5.27959 13.8286 5.319 14.0864 5.4541 14.3516C5.63383 14.7042 5.92072 14.9912 6.27344 15.1709C6.53856 15.306 6.79638 15.3454 6.99121 15.3613C7.16554 15.3755 7.36638 15.375 7.55078 15.375H10.4492C10.6336 15.375 10.8345 15.3755 11.0088 15.3613C11.2036 15.3454 11.4614 15.306 11.7266 15.1709C12.0792 14.9912 12.3662 14.7042 12.5459 14.3516C12.681 14.0864 12.7204 13.8286 12.7363 13.6338C12.7505 13.4595 12.75 13.2586 12.75 13.0742V12.4258C12.75 12.2414 12.7505 12.0405 12.7363 11.8662C12.7204 11.6714 12.681 11.4136 12.5459 11.1484C12.3662 10.7958 12.0792 10.5088 11.7266 10.3291C11.6283 10.279 11.5307 10.2433 11.4375 10.2158V9.9375C11.4375 8.59129 10.3462 7.5 9 7.5ZM7.72461 12.375H10.2754C10.3863 12.375 10.4475 12.3753 10.4912 12.3789C10.4926 12.379 10.4939 12.3788 10.4951 12.3789C10.4953 12.3805 10.496 12.3821 10.4961 12.3838C10.4997 12.4275 10.5 12.4887 10.5 12.5996V12.9004C10.5 13.0113 10.4997 13.0725 10.4961 13.1162C10.496 13.1176 10.4952 13.1189 10.4951 13.1201C10.4939 13.1202 10.4926 13.121 10.4912 13.1211C10.4475 13.1247 10.3863 13.125 10.2754 13.125H7.72461C7.61367 13.125 7.55246 13.1247 7.50879 13.1211C7.50705 13.121 7.50546 13.1203 7.50391 13.1201C7.50379 13.1189 7.50402 13.1176 7.50391 13.1162C7.50034 13.0725 7.5 13.0113 7.5 12.9004V12.5996C7.5 12.4887 7.50034 12.4275 7.50391 12.3838C7.50405 12.3821 7.50376 12.3804 7.50391 12.3789C7.50543 12.3788 7.50708 12.379 7.50879 12.3789C7.55246 12.3753 7.61367 12.375 7.72461 12.375ZM9 9.75C9.10354 9.75 9.1875 9.83396 9.1875 9.9375V10.125H8.8125V9.9375C8.8125 9.83396 8.89646 9.75 9 9.75ZM11.6758 2.14648C11.7007 2.17032 11.7291 2.19875 11.7656 2.23535L14.2646 4.73438C14.3012 4.77093 14.3297 4.79935 14.3535 4.82422C14.3723 4.84383 14.3851 4.85901 14.3945 4.87012C14.3525 4.87395 14.2926 4.875 14.1807 4.875H11.8496C11.7387 4.875 11.6775 4.87466 11.6338 4.87109C11.6321 4.87095 11.6305 4.87026 11.6289 4.87012C11.6288 4.86873 11.629 4.86676 11.6289 4.86523C11.6254 4.82161 11.625 4.76091 11.625 4.65039V2.31934C11.625 2.20667 11.625 2.14663 11.6289 2.10449C11.6402 2.11394 11.6555 2.12709 11.6758 2.14648Z" fill="#E99A00" stroke="#E99A00" stroke-width="0.75"/>
</svg>
