<svg width="24" height="25" viewBox="0 0 24 25" fill="none" xmlns="http://www.w3.org/2000/svg">
<path d="M20.5195 2.7644H3.47656C2.66016 2.7644 2 3.40894 2 4.20581V21.3191C2 22.116 2.66016 22.7644 3.47656 22.7644H20.5195C21.3359 22.7644 22 22.116 22 21.323V4.20581C22 3.40894 21.3359 2.7644 20.5195 2.7644ZM7.93359 19.8074H4.96484V10.2605H7.93359V19.8074ZM6.44922 8.95972C5.49609 8.95972 4.72656 8.19019 4.72656 7.24097C4.72656 6.29175 5.49609 5.52222 6.44922 5.52222C7.39844 5.52222 8.16797 6.29175 8.16797 7.24097C8.16797 8.18628 7.39844 8.95972 6.44922 8.95972ZM19.043 19.8074H16.0781V15.1667C16.0781 14.0613 16.0586 12.6355 14.5352 12.6355C12.9922 12.6355 12.7578 13.8425 12.7578 15.0886V19.8074H9.79688V10.2605H12.6406V11.5652H12.6797C13.0742 10.8152 14.043 10.0222 15.4844 10.0222C18.4883 10.0222 19.043 11.9988 19.043 14.5691V19.8074Z" fill="#292D32"/>
</svg>
