<svg width="18" height="18" viewBox="0 0 18 18" fill="none" xmlns="http://www.w3.org/2000/svg">
<path d="M15 5.625C14.3787 5.625 13.875 5.12134 13.875 4.5C13.875 3.87866 14.3787 3.375 15 3.375C15.6213 3.375 16.125 3.87866 16.125 4.5C16.125 5.12134 15.6213 5.625 15 5.625ZM11.25 4.875L2.25 4.875C2.04288 4.875 1.875 4.70712 1.875 4.5C1.875 4.29288 2.04288 4.125 2.25 4.125L11.25 4.125C11.4571 4.125 11.625 4.29289 11.625 4.5C11.625 4.70711 11.4571 4.875 11.25 4.875ZM15 10.125C14.3787 10.125 13.875 9.62134 13.875 9C13.875 8.37866 14.3787 7.875 15 7.875C15.6213 7.875 16.125 8.37866 16.125 9C16.125 9.62134 15.6213 10.125 15 10.125ZM11.25 9.375L2.25 9.375C2.04288 9.375 1.875 9.20712 1.875 9C1.875 8.79288 2.04288 8.625 2.25 8.625L11.25 8.625C11.4571 8.625 11.625 8.79289 11.625 9C11.625 9.20711 11.4571 9.375 11.25 9.375ZM15 14.625C14.3787 14.625 13.875 14.1213 13.875 13.5C13.875 12.8787 14.3787 12.375 15 12.375C15.6213 12.375 16.125 12.8787 16.125 13.5C16.125 14.1213 15.6213 14.625 15 14.625ZM11.25 13.875L2.25 13.875C2.04289 13.875 1.875 13.7071 1.875 13.5C1.875 13.2929 2.04288 13.125 2.25 13.125L11.25 13.125C11.4571 13.125 11.625 13.2929 11.625 13.5C11.625 13.7071 11.4571 13.875 11.25 13.875Z" fill="#E99A00" stroke="#E99A00" stroke-width="0.75"/>
</svg>
