<svg width="16" height="16" viewBox="0 0 16 16" fill="none" xmlns="http://www.w3.org/2000/svg">
<path fill-rule="evenodd" clip-rule="evenodd" d="M7.57064 13.6301C7.43547 13.5609 7.24456 13.4587 7.01644 13.3246C6.5613 13.057 5.9524 12.6588 5.34111 12.1371C4.13339 11.1063 2.83317 9.51983 2.83317 7.44411C2.83317 4.54275 5.13318 2.16663 7.99984 2.16663C10.8665 2.16663 13.1665 4.54275 13.1665 7.44411C13.1665 9.51983 11.8663 11.1063 10.6586 12.1371C10.0473 12.6588 9.43838 13.057 8.98323 13.3246C8.75511 13.4587 8.5642 13.5609 8.42903 13.6301L7.99984 13.8333L7.57064 13.6301ZM9.99984 7.33329C9.99984 8.43786 9.10441 9.33329 7.99984 9.33329C6.89527 9.33329 5.99984 8.43786 5.99984 7.33329C5.99984 6.22872 6.89527 5.33329 7.99984 5.33329C9.10441 5.33329 9.99984 6.22872 9.99984 7.33329Z" fill="#E99A00"/>
<path d="M2.4991 9.73449C1.83342 8.20798 1.83342 6.45963 2.4991 4.93311L1.27692 4.40015C0.463032 6.26652 0.463032 8.40109 1.27692 10.2675L2.4991 9.73449Z" fill="#E99A00"/>
<path d="M13.5006 4.93311C14.1663 6.45963 14.1663 8.20798 13.5006 9.73449L14.7228 10.2675C15.5366 8.40109 15.5366 6.26652 14.7228 4.40015L13.5006 4.93311Z" fill="#E99A00"/>
</svg>
