<svg width="64" height="64" viewBox="0 0 64 64" fill="none" xmlns="http://www.w3.org/2000/svg">
<path d="M32 62C27.073 62 11 61.495 11 55C11 52.331 13.7 50.375 19.024 49.188C19.5418 49.0723 20.0844 49.1672 20.5323 49.4516C20.9803 49.7359 21.2969 50.1866 21.4125 50.7045C21.5281 51.2223 21.4333 51.7649 21.1489 52.2128C20.8645 52.6607 20.4138 52.9773 19.896 53.093C16.548 53.839 15.422 54.681 15.096 55.01C15.99 55.952 20.924 58 32 58C43.076 58 48.01 55.952 48.907 55.01C48.578 54.681 47.452 53.839 44.107 53.093C43.8408 53.0462 43.5868 52.9459 43.3604 52.7982C43.134 52.6505 42.9399 52.4585 42.7898 52.2337C42.6398 52.0089 42.5368 51.756 42.4872 51.4903C42.4376 51.2245 42.4423 50.9515 42.5012 50.6877C42.56 50.4239 42.6718 50.1747 42.8296 49.9553C42.9874 49.7359 43.1881 49.5507 43.4195 49.411C43.6509 49.2713 43.9082 49.18 44.1759 49.1425C44.4436 49.105 44.7161 49.1222 44.977 49.193C50.3 50.375 53 52.331 53 55C53 61.5 36.927 62 32 62Z" fill="black"/>
<path d="M22 22C21.9984 19.9619 22.6202 17.972 23.7818 16.2973C24.9435 14.6226 26.5895 13.3432 28.4991 12.6307C30.4086 11.9182 32.4904 11.8067 34.4652 12.3112C36.4399 12.8157 38.2131 13.912 39.547 15.453L46.618 8.38202C43.8849 5.43931 40.3284 3.3886 36.4123 2.49742C32.4963 1.60624 28.4026 1.91595 24.6652 3.38616C20.9279 4.85636 17.7203 7.4188 15.461 10.7392C13.2018 14.0596 11.9957 17.9839 12 22C12 26.363 14.26 32.078 17.254 37.746L25.454 29.546C24.3699 28.6103 23.5002 27.4518 22.9042 26.1496C22.3081 24.8475 21.9998 23.4321 22 22Z" fill="#E99A00"/>
<path d="M49.592 12.479L41.835 20.236C42.128 21.8235 42.0307 23.4584 41.5514 24.9999C41.0722 26.5414 40.2253 27.9433 39.0838 29.0848C37.9423 30.2262 36.5405 31.0731 34.999 31.5524C33.4574 32.0317 31.8225 32.129 30.2351 31.836L19.8 42.275C21.954 45.911 24.248 49.37 26.262 52.247C26.9077 53.171 27.7669 53.9256 28.7665 54.4466C29.7662 54.9675 30.8768 55.2396 32.0041 55.2396C33.1313 55.2396 34.2419 54.9675 35.2416 54.4466C36.2412 53.9256 37.1004 53.171 37.746 52.247C43.651 43.808 52 30.4 52 22C52.0048 18.6751 51.1769 15.4019 49.592 12.479Z" fill="#E99A00"/>
<path d="M12.5001 44.5C12.1046 44.4999 11.718 44.3826 11.3891 44.1628C11.0603 43.9431 10.804 43.6307 10.6527 43.2653C10.5014 42.8999 10.4618 42.4979 10.5389 42.11C10.616 41.722 10.8064 41.3657 11.0861 41.086L50.0861 2.08602C50.4633 1.7217 50.9685 1.52012 51.4929 1.52467C52.0173 1.52923 52.5189 1.73957 52.8897 2.11038C53.2605 2.4812 53.4709 2.98282 53.4754 3.50722C53.48 4.03161 53.2784 4.53682 52.9141 4.91402L13.9141 43.914C13.7287 44.1001 13.5083 44.2477 13.2656 44.3483C13.0229 44.4488 12.7627 44.5004 12.5001 44.5Z" fill="black"/>
</svg>
