<svg width="24" height="25" viewBox="0 0 24 25" fill="none" xmlns="http://www.w3.org/2000/svg">
<path fill-rule="evenodd" clip-rule="evenodd" d="M6 7.65677V9.36512C4.75527 10.7754 4 12.6279 4 14.6568C4 19.0751 7.58172 22.6568 12 22.6568C16.4183 22.6568 20 19.0751 20 14.6568C20 12.6279 19.2447 10.7754 18 9.36512V7.65677C18 4.34306 15.3137 1.65677 12 1.65677C8.68629 1.65677 6 4.34306 6 7.65677ZM12 3.65677C9.79086 3.65677 8 5.44763 8 7.65677V7.72703C9.17669 7.04635 10.5429 6.65677 12 6.65677C13.4571 6.65677 14.8233 7.04635 16 7.72703V7.65677C16 5.44763 14.2091 3.65677 12 3.65677ZM13 13.6568C13 13.1045 12.5523 12.6568 12 12.6568C11.4477 12.6568 11 13.1045 11 13.6568V15.6568C11 16.2091 11.4477 16.6568 12 16.6568C12.5523 16.6568 13 16.2091 13 15.6568V13.6568Z" fill="#E99A00"/>
</svg>
