<svg width="30" height="30" viewBox="0 0 30 30" fill="none" xmlns="http://www.w3.org/2000/svg">
<path d="M19.5706 23.512C19.4795 23.3505 19.3123 23.2503 19.1341 23.2503C19.0531 23.2503 18.9724 23.2714 18.9002 23.312C17.7583 23.9611 16.5004 24.2902 15.162 24.2902C13.8237 24.2902 12.7105 23.9977 11.423 23.3114C11.3538 23.2714 11.2743 23.25 11.1933 23.25C11.0094 23.25 10.8425 23.3583 10.7572 23.5328C10.6956 23.6519 10.6825 23.7882 10.7206 23.917C10.7593 24.0477 10.8464 24.1551 10.9661 24.2197C12.3864 24.9755 13.6805 25.3125 15.162 25.3125C16.6435 25.3125 18.0726 24.9418 19.3747 24.2109C19.6144 24.0767 19.7034 23.7649 19.573 23.5161L19.5706 23.512Z" fill="#D48C00"/>
<path d="M21.3981 19.5605C21.3106 19.5005 21.2106 19.4688 21.1088 19.4688C20.9372 19.4688 20.7868 19.5524 20.7052 19.6929C20.0857 20.5838 19.3055 21.2829 18.3852 21.7706C17.4244 22.2825 16.3107 22.5534 15.1649 22.5534C14.0247 22.5534 12.9129 22.2851 11.9505 21.7778C11.0296 21.2932 10.2504 20.597 9.63554 19.7106C9.54148 19.5715 9.38732 19.4883 9.22319 19.4883C9.11823 19.4883 9.01639 19.5213 8.92888 19.5842C8.81707 19.6644 8.74294 19.7853 8.7199 19.9244C8.69747 20.0614 8.72955 20.2039 8.80679 20.3132C9.5119 21.3327 10.4136 22.1373 11.4865 22.7043C12.5852 23.286 13.8541 23.5938 15.1556 23.5938C16.463 23.5938 17.7384 23.2836 18.8427 22.6971C19.9132 22.1314 20.8148 21.3218 21.5233 20.2901C21.6865 20.0483 21.6329 19.7285 21.3981 19.5605Z" fill="#D48C00"/>
<path d="M7.76618 15.1649C7.77996 15.3383 7.82851 15.5383 7.89084 15.7004H4.21102C4.17155 15.7004 3.9877 15.7795 3.94354 15.8126C3.66072 16.0246 3.69611 16.4918 3.99585 16.6688C4.01746 16.6814 4.16842 16.7378 4.1797 16.7378H9.2304C9.40736 18.1393 10.0955 19.4309 11.1719 20.3795C12.2666 21.344 13.6779 21.875 15.1456 21.875C17.4786 21.875 19.6081 20.5238 20.5715 18.4318C20.8061 17.9192 20.9586 17.3493 21.0253 16.7375H25.8217C25.9257 16.7375 26.1246 16.5865 26.1822 16.4947C26.2605 16.3699 26.2661 16.1695 26.2238 16.0298C26.1778 15.8765 25.9435 15.7004 25.7904 15.7004H22.1102C22.1798 15.5215 22.2239 15.3276 22.2368 15.1344C22.3238 13.8496 22.1992 12.4216 21.7576 11.2185C21.4134 10.2806 20.8424 9.55991 20.6473 8.54227C20.5727 8.15324 20.589 7.79048 20.5414 7.41993C20.5117 7.18943 20.3112 6.99297 20.0857 6.9813C19.8583 6.96963 19.4248 7.09963 19.1517 7.11033C18.0906 7.1515 17.3605 6.73264 16.3793 6.54104C11.9935 5.6842 7.96882 9.01559 7.7643 13.6078C7.74394 14.0642 7.73079 14.7162 7.76618 15.1649ZM19.6557 17.972C18.8589 19.699 17.0887 20.8149 15.1459 20.8149C12.7117 20.8149 10.6267 19.0681 10.259 16.7375H11.046C11.217 17.6611 11.7116 18.5057 12.442 19.1184C13.189 19.7451 14.1392 20.0903 15.1177 20.0903C16.0961 20.0903 17.0464 19.7451 17.7934 19.1184C18.5241 18.5053 19.0186 17.6611 19.1893 16.7375H20.0061C19.9454 17.1862 19.8279 17.6012 19.6557 17.972ZM15.1387 18.306C16.1378 18.306 17.0207 17.6761 17.3405 16.7375H18.1467C17.8025 18.0764 16.5456 19.0377 15.1177 19.0377C13.6898 19.0377 12.4329 18.0764 12.0887 16.7375H12.9372C13.2566 17.6761 14.1395 18.306 15.1387 18.306ZM14.076 16.7375H16.2014C15.9577 17.0637 15.5646 17.2604 15.1387 17.2604C14.7127 17.2604 14.3196 17.0637 14.076 16.7375ZM10.9919 15.7001V14.4033C11.8967 14.3712 12.8332 14.4876 13.723 14.2964C14.6306 14.1012 15.4797 13.5669 16.1171 12.8819C16.1666 12.8728 16.4291 13.1821 16.4895 13.2353C17.1973 13.8577 18.0765 14.2763 19.0098 14.3709V15.7001H10.9919ZM21.0122 15.5847C20.9893 15.6025 20.822 15.7001 20.8104 15.7001H19.9805V14.4033H20.7478C20.7688 14.4033 20.9483 14.4957 20.9808 14.5188C21.3357 14.771 21.3554 15.3159 21.0122 15.5847ZM13.7728 7.54021C15.2987 7.22768 16.0855 7.55285 17.493 7.91724C18.1842 8.09619 18.894 8.16071 19.6049 8.08161C19.6416 8.61944 19.769 9.15144 19.9488 9.65459C20.1565 10.2359 20.4916 10.7215 20.7281 11.2794C21.0194 11.968 21.2107 12.7432 21.2336 13.4953C20.631 13.3111 19.9905 13.436 19.3703 13.3977C18.5234 13.3455 17.7357 13.0161 17.099 12.442C16.834 12.2031 16.4676 11.6357 16.1127 11.6448C15.7923 11.6529 15.4312 12.1888 15.1891 12.4096C13.4843 13.9657 11.2891 13.2262 9.22101 13.3967C9.06441 13.4097 8.92127 13.4697 8.76812 13.495C8.89622 10.598 11.0382 8.10041 13.7728 7.54021ZM9.02056 14.5191C9.05313 14.4961 9.2326 14.4037 9.25358 14.4037H10.0209V15.7004H9.19094C9.15116 15.7004 8.9172 15.5225 8.87962 15.4716C8.65286 15.1662 8.71425 14.7366 9.02056 14.5191Z" fill="#D48C00"/>
<path d="M8.5399 27.8269C8.5187 27.8085 8.39928 27.7282 8.39062 27.7282H4.67371V23.6956C4.67371 23.6837 4.62206 23.5251 4.61012 23.5024C4.41158 23.1172 3.83867 23.1827 3.75 23.6321L3.77657 28.4376C3.83628 28.6259 4.03541 28.7405 4.20976 28.75L8.29837 28.7457C8.70708 28.6924 8.86293 28.1068 8.5399 27.8269Z" fill="#D48C00"/>
<path d="M4.5365 6.60324C4.56905 6.56489 4.67386 6.36355 4.67386 6.32553V2.27555H8.33168C8.37258 2.27555 8.5613 2.15025 8.59743 2.10694C8.82645 1.83287 8.69955 1.32968 8.35944 1.25264L4.12056 1.25C3.9623 1.27116 3.83361 1.4001 3.7709 1.55714L3.75 6.3566C3.82256 6.7411 4.29733 6.88294 4.5365 6.60324Z" fill="#D48C00"/>
<path d="M25.3421 23.4999C25.3299 23.5228 25.2751 23.6802 25.2751 23.6919V27.6996H21.9524C21.9433 27.6996 21.8141 27.7798 21.7943 27.7971C21.4586 28.0909 21.6305 28.6343 22.0544 28.7059C23.2481 28.6372 24.5879 28.8244 25.7645 28.7151C25.9717 28.6958 26.1594 28.5921 26.2303 28.3811L26.2495 23.6288C26.1516 23.1888 25.5532 23.1142 25.3421 23.4999Z" fill="#D48C00"/>
<path d="M21.858 2.20575C21.8801 2.21865 22.0317 2.2762 22.0431 2.2762H25.2742V6.3274C25.2742 6.37271 25.3937 6.58172 25.4349 6.62174C25.6963 6.87539 26.176 6.73484 26.2495 6.35816L26.2366 1.58038C26.1738 1.41304 26.0345 1.27216 25.858 1.25L21.9819 1.25298C21.558 1.35583 21.4864 1.98418 21.858 2.20575Z" fill="#D48C00"/>
<path d="M7.3207 5.01382C7.84811 4.93361 7.89173 4.08716 7.2246 4.01309C7.05864 3.99466 6.63882 3.99433 6.4781 4.02086C5.92282 4.11304 5.92741 4.95107 6.50303 5.01576C6.67358 5.03484 7.15671 5.03905 7.3207 5.01382Z" fill="#D48C00"/>
<path d="M22.7151 4.02086C22.1217 4.11888 22.1591 4.93504 22.6767 5.01397C22.8424 5.0392 23.2882 5.0337 23.463 5.01721C24.0944 4.95866 24.0872 4.082 23.4617 4.0131C23.2954 3.99466 22.8765 3.99433 22.7151 4.02086Z" fill="#D48C00"/>
<path d="M6.47731 24.9888C5.90819 25.083 5.94337 25.919 6.50164 25.9851C6.66636 26.0045 7.16283 26.0064 7.32229 25.9822C7.76483 25.9148 7.86774 25.273 7.48372 25.0506C7.31966 24.9554 6.67655 24.9558 6.47731 24.9888Z" fill="#D48C00"/>
<path d="M22.6798 24.9878C22.1678 25.0802 22.1448 25.8507 22.622 25.974C22.7822 26.0154 23.5024 26.0076 23.6492 25.949C23.6764 25.9382 23.7723 25.8702 23.7934 25.8477C24.036 25.5916 23.9556 25.147 23.6173 25.0197C23.4623 24.9614 22.8525 24.9566 22.6798 24.9878Z" fill="#D48C00"/>
</svg>
