<svg width="18" height="18" viewBox="0 0 18 18" fill="none" xmlns="http://www.w3.org/2000/svg">
<path d="M10 16.125C9.13518 16.125 8.30779 15.959 7.5459 15.6572C7.32054 15.568 7.28479 15.5494 7.24414 15.5127C7.20743 15.4795 7.16189 15.4125 7.14453 15.3662V15.3652C7.12613 15.316 7.12012 15.2629 7.12012 14.9756V12.4502C7.12012 12.2342 7.12123 12.0945 7.12988 11.9883C7.13815 11.8871 7.15169 11.8488 7.16113 11.8301C7.19707 11.7596 7.25473 11.702 7.3252 11.666C7.34372 11.6566 7.38158 11.6421 7.4834 11.6338C7.58962 11.6251 7.72928 11.625 7.94531 11.625H11.25C12.6997 11.625 13.875 10.4498 13.875 9C13.875 7.55022 12.6997 6.375 11.25 6.375L7.94922 6.375C7.7333 6.375 7.59344 6.37487 7.4873 6.36621C7.43642 6.36205 7.40142 6.35633 7.37695 6.35059L7.3291 6.33398C7.25879 6.29821 7.20111 6.24136 7.16504 6.1709C7.1556 6.15242 7.14122 6.11433 7.13281 6.0127C7.12404 5.90653 7.12425 5.76681 7.12402 5.55078L7.12109 3.02539C7.12077 2.73845 7.12622 2.68418 7.14453 2.63477C7.16192 2.58823 7.20737 2.52065 7.24414 2.4873C7.28485 2.45048 7.32078 2.4313 7.54688 2.3418C8.30843 2.04025 9.13552 1.875 10 1.875C13.8098 1.87501 16.875 5.07806 16.875 9C16.875 12.922 13.8098 16.125 10 16.125ZM4.76562 12.2656C4.6192 12.4121 4.3808 12.4121 4.23438 12.2656L1.23438 9.26562C1.08795 9.1192 1.08795 8.8808 1.23438 8.73437L4.23438 5.73437C4.3808 5.58795 4.6192 5.58795 4.76563 5.73437C4.91205 5.8808 4.91205 6.1192 4.76563 6.26562L3.0459 7.98437L2.40527 8.625L11.25 8.625C11.4571 8.625 11.625 8.79289 11.625 9C11.625 9.20711 11.4571 9.375 11.25 9.375L2.40527 9.375L3.0459 10.0156L4.76562 11.7344C4.91205 11.8808 4.91205 12.1192 4.76562 12.2656Z" fill="#E99A00" stroke="#E99A00" stroke-width="0.75"/>
</svg>
