<svg width="18" height="19" viewBox="0 0 18 19" fill="none" xmlns="http://www.w3.org/2000/svg">
<path d="M1.14062 7.02881C1.19403 7.06115 1.26452 7.112 1.38184 7.1958L7.05859 11.2505C7.45195 11.5324 7.86783 11.836 8.35742 11.9624C8.77484 12.0701 9.21282 12.0737 9.63184 11.9722C10.1233 11.8531 10.5429 11.5539 10.9404 11.2778L16.7471 7.25928C16.8051 7.21909 16.8402 7.19481 16.8662 7.17822C16.8687 7.17663 16.871 7.17458 16.873 7.17334C16.8732 7.17565 16.8739 7.17823 16.874 7.18115C16.8752 7.21145 16.875 7.25369 16.875 7.32373V12.1851C16.875 12.7943 16.8744 13.2754 16.8428 13.6626C16.8143 14.0112 16.7593 14.3097 16.6426 14.5815L16.5889 14.6958C16.3372 15.1897 15.9353 15.5916 15.4414 15.8433C15.139 15.9972 14.8063 16.0647 14.4082 16.0972C14.021 16.1288 13.5399 16.1294 12.9307 16.1294H5.06934C4.46014 16.1294 3.97902 16.1288 3.5918 16.0972C3.19364 16.0647 2.8609 15.9972 2.55859 15.8433C2.06466 15.5916 1.6628 15.1897 1.41113 14.6958C1.25715 14.3934 1.18976 14.0608 1.15723 13.6626C1.1256 13.2754 1.12499 12.7943 1.125 12.1851V7.32373C1.125 7.18094 1.12518 7.09504 1.12988 7.03369C1.13018 7.02983 1.13055 7.02626 1.13086 7.02295C1.13388 7.02471 1.13712 7.02669 1.14062 7.02881ZM5.06934 3.37939H12.9307C13.5399 3.37939 14.021 3.38 14.4082 3.41162C14.8064 3.44416 15.1391 3.51155 15.4414 3.66553C15.8498 3.87363 16.2099 4.19422 16.458 4.57959C16.4772 4.60939 16.4906 4.63128 16.502 4.6499C16.5094 4.66212 16.5142 4.67098 16.5176 4.67725C16.5079 4.68533 16.4937 4.69652 16.4717 4.7124C16.4485 4.7291 16.4211 4.74846 16.3857 4.77295L9.74707 9.36865C9.47089 9.55988 9.31279 9.66543 9.21289 9.72607C9.16432 9.75555 9.13625 9.77037 9.12012 9.77783C9.10721 9.78377 9.10275 9.78438 9.10156 9.78467C9.04176 9.79916 8.97948 9.79907 8.91992 9.78369C8.91879 9.7834 8.91495 9.78287 8.90234 9.77686C8.88641 9.76923 8.85826 9.75368 8.80957 9.72314C8.71054 9.66101 8.55371 9.55319 8.28027 9.35791L1.69922 4.65674C1.66239 4.63044 1.63363 4.61031 1.60938 4.59229C1.58604 4.57495 1.57087 4.5631 1.56055 4.5542C1.56487 4.54721 1.57126 4.53695 1.58105 4.52295C1.59451 4.50372 1.61071 4.48179 1.63281 4.45166C1.87375 4.1233 2.19154 3.85255 2.55859 3.66553C2.8609 3.51154 3.1936 3.44416 3.5918 3.41162C3.97902 3.37999 4.46013 3.37939 5.06934 3.37939Z" fill="#E99A00" stroke="#E99A00" stroke-width="0.75"/>
</svg>
