<svg width="25" height="24" viewBox="0 0 25 24" fill="none" xmlns="http://www.w3.org/2000/svg">
<path fill-rule="evenodd" clip-rule="evenodd" d="M2.75 12C2.75 11.4477 3.19772 11 3.75 11H21.75C22.3023 11 22.75 11.4477 22.75 12C22.75 12.5523 22.3023 13 21.75 13H3.75C3.19772 13 2.75 12.5523 2.75 12Z" fill="#A4A4A4"/>
<path fill-rule="evenodd" clip-rule="evenodd" d="M2.75 6C2.75 5.44772 3.19772 5 3.75 5H21.75C22.3023 5 22.75 5.44772 22.75 6C22.75 6.55228 22.3023 7 21.75 7H3.75C3.19772 7 2.75 6.55228 2.75 6Z" fill="#A4A4A4"/>
<path fill-rule="evenodd" clip-rule="evenodd" d="M8.75 18C8.75 17.4477 9.19772 17 9.75 17H21.75C22.3023 17 22.75 17.4477 22.75 18C22.75 18.5523 22.3023 19 21.75 19H9.75C9.19772 19 8.75 18.5523 8.75 18Z" fill="#A4A4A4"/>
</svg>
