<svg width="24" height="24" viewBox="0 0 24 24" fill="none" xmlns="http://www.w3.org/2000/svg">
<path d="M4.7746 8.30499V12.705M16.2163 8.30524V12.7053M19.2946 7.92493V13.075C19.2946 16.155 17.5346 17.4749 14.8946 17.4749H6.10458C5.65458 17.4749 5.22458 17.435 4.82458 17.345C4.57458 17.305 4.33459 17.235 4.11459 17.155C2.61459 16.595 1.70459 15.295 1.70459 13.075V7.92493C1.70459 4.84493 3.46458 3.52496 6.10458 3.52496H14.8946C17.1346 3.52496 18.7446 4.47496 19.1746 6.64496C19.2446 7.04496 19.2946 7.45493 19.2946 7.92493ZM22.2957 10.925V16.0751C22.2957 19.1551 20.5357 20.475 17.8957 20.475H9.10568C8.36568 20.475 7.69569 20.3751 7.11569 20.1551C5.92569 19.7151 5.11568 18.8051 4.82568 17.3451C5.22568 17.4351 5.65568 17.475 6.10568 17.475H14.8957C17.5357 17.475 19.2957 16.1551 19.2957 13.0751V7.92505C19.2957 7.45505 19.2557 7.03508 19.1757 6.64508C21.0757 7.04508 22.2957 8.38505 22.2957 10.925ZM13.1331 10.5048C13.1331 11.9629 11.9511 13.1448 10.493 13.1448C9.03501 13.1448 7.85303 11.9629 7.85303 10.5048C7.85303 9.04679 9.03501 7.86481 10.493 7.86481C11.9511 7.86481 13.1331 9.04679 13.1331 10.5048Z" stroke="white" stroke-width="1.5" stroke-miterlimit="10" stroke-linecap="round" stroke-linejoin="round"/>
</svg>
