<svg width="20" height="20" viewBox="0 0 20 20" fill="none" xmlns="http://www.w3.org/2000/svg">
<path d="M11.9293 17.1878C12.1017 17.0356 12.3649 17.0515 12.5172 17.2239C12.6694 17.3964 12.6525 17.6596 12.4801 17.8118V17.8128C11.8193 18.3959 10.9501 18.7503 9.99959 18.7503C9.04901 18.7502 8.17986 18.396 7.51912 17.8128V17.8118C7.34692 17.6596 7.33083 17.3963 7.48299 17.2239C7.6353 17.0517 7.89846 17.0356 8.07088 17.1878C8.58523 17.6417 9.25991 17.9162 9.99959 17.9163C10.7395 17.9163 11.4148 17.6419 11.9293 17.1878ZM10.0006 1.25031C11.437 1.2504 12.815 1.82052 13.8306 2.83624C14.8464 3.85199 15.4165 5.22987 15.4166 6.66632C15.4166 9.01134 15.9704 10.6403 16.6021 11.7386L16.7291 11.9515L16.7388 11.9661V11.9671C17.0383 12.4484 17.2691 12.8195 17.4234 13.0872C17.5009 13.2216 17.5657 13.3402 17.6109 13.4398C17.6335 13.4894 17.6555 13.5434 17.6715 13.597C17.6852 13.6431 17.7055 13.7242 17.6978 13.8177C17.6901 13.9119 17.6726 14.036 17.6041 14.1595C17.5698 14.2212 17.529 14.2723 17.4869 14.3148L17.3638 14.4193C17.2451 14.5074 17.0968 14.5324 17.023 14.5433L17.0181 14.5443H17.0172C16.9171 14.5589 16.7963 14.5674 16.6617 14.5726H16.6607C16.3914 14.5831 16.0144 14.5833 15.5299 14.5833H4.47029C3.98564 14.5833 3.60868 14.5831 3.33943 14.5726C3.20411 14.5674 3.08238 14.559 2.98201 14.5443L2.97713 14.5433C2.92183 14.5351 2.82512 14.5187 2.73006 14.4739L2.63631 14.4193C2.56059 14.3631 2.46459 14.2828 2.39607 14.1595C2.32751 14.036 2.31003 13.9119 2.30232 13.8177C2.29472 13.724 2.31595 13.6431 2.32967 13.597C2.34561 13.5435 2.36687 13.49 2.38924 13.4407V13.4398C2.43438 13.3403 2.49923 13.2216 2.57674 13.0872C2.73103 12.8195 2.96188 12.4483 3.26131 11.9671V11.9661L3.2701 11.9505L3.27107 11.9515C3.95365 10.8546 4.58357 9.16754 4.58357 6.66632C4.58366 5.22985 5.15474 3.85199 6.17049 2.83624C7.18628 1.82065 8.56415 1.25031 10.0006 1.25031Z" fill="white" stroke="white" stroke-width="0.833333"/>
</svg>
