<svg width="24" height="24" viewBox="0 0 24 24" fill="none" xmlns="http://www.w3.org/2000/svg">
<path d="M12 12.5C13.8729 12.5 15.5707 13.1196 16.8146 13.987C17.9981 14.8123 19 16.0381 19 17.3571C19 18.0815 18.6914 18.6811 18.2045 19.1278C17.7464 19.5481 17.1483 19.8206 16.5323 20.007C15.301 20.3797 13.6803 20.5 12 20.5C10.3197 20.5 8.69903 20.3797 7.46769 20.007C6.85169 19.8206 6.25355 19.5481 5.79546 19.1278C5.30861 18.6811 5 18.0815 5 17.3571C5 16.0381 6.00191 14.8123 7.18535 13.987C8.42925 13.1196 10.1271 12.5 12 12.5ZM19 13.5C20.0445 13.5 20.9923 13.8445 21.6933 14.3334C22.3339 14.7801 23 15.5237 23 16.4286C23 16.9458 22.7753 17.3749 22.4403 17.6823C22.134 17.9633 21.7555 18.1278 21.411 18.2321C20.9409 18.3743 20.3859 18.4472 19.8099 18.4792C19.9322 18.1344 20 17.7591 20 17.3571C20 15.8217 19.041 14.5184 17.9679 13.613C18.2966 13.5403 18.6426 13.5 19 13.5ZM5 13.5C5.35735 13.5 5.7034 13.5403 6.03211 13.613C4.95899 14.5184 4 15.8217 4 17.3571C4 17.7591 4.06783 18.1344 4.19007 18.4792C3.61409 18.4472 3.05908 18.3743 2.58901 18.2321C2.24445 18.1278 1.86599 17.9633 1.55971 17.6823C1.22467 17.3749 1 16.9458 1 16.4286C1 15.5237 1.66612 14.7801 2.30667 14.3334C3.00768 13.8445 3.95551 13.5 5 13.5ZM18.5 7.5C19.8807 7.5 21 8.61929 21 10C21 11.3807 19.8807 12.5 18.5 12.5C17.1193 12.5 16 11.3807 16 10C16 8.61929 17.1193 7.5 18.5 7.5ZM5.5 7.5C6.88071 7.5 8 8.61929 8 10C8 11.3807 6.88071 12.5 5.5 12.5C4.11929 12.5 3 11.3807 3 10C3 8.61929 4.11929 7.5 5.5 7.5ZM12 3.5C14.2091 3.5 16 5.29086 16 7.5C16 9.70914 14.2091 11.5 12 11.5C9.79086 11.5 8 9.70914 8 7.5C8 5.29086 9.79086 3.5 12 3.5Z" fill="#E99A00"/>
</svg>
