<svg width="18" height="18" viewBox="0 0 18 18" fill="none" xmlns="http://www.w3.org/2000/svg">
<path d="M12.9392 1.84717C13.8085 0.949779 15.2442 0.938384 16.1277 1.82178C16.9334 2.62748 16.9979 3.89784 16.3113 4.77783L16.1638 4.94873L13.9158 7.30811L13.7761 7.45361L13.822 7.65088L15.1804 13.5513V13.5532C15.2248 13.7426 15.2637 13.917 15.2507 14.0845C15.239 14.2363 15.1962 14.3841 15.1257 14.519C15.0143 14.7323 14.8288 14.9534 14.6023 15.1753C14.3773 15.3956 14.1307 15.5989 13.9041 15.7876C13.7458 15.9193 13.569 16.0369 13.3552 16.0747C13.0885 16.1219 12.8154 16.0712 12.5847 15.9341L12.489 15.8706L12.3699 15.7642C12.2629 15.6488 12.1887 15.5091 12.1267 15.3677C12.0466 15.185 11.9669 14.9468 11.8718 14.6616L10.738 11.2612L10.5466 10.686L10.1169 11.1147L8.46655 12.7661C8.38991 12.8428 8.34115 12.8907 8.30542 12.9302L8.30347 12.9331L8.198 13.0493L8.20679 13.2065C8.21166 13.291 8.22338 13.3781 8.23022 13.4399C8.27761 13.8665 8.32382 14.2975 8.3728 14.7261C8.38726 14.8527 8.39984 14.9719 8.39526 15.0854L8.38452 15.1968C8.36324 15.3299 8.31828 15.4585 8.25171 15.5757C8.17833 15.7048 8.06849 15.8163 7.948 15.936C7.7081 16.1745 7.49989 16.3925 7.32007 16.5435C7.22178 16.6259 7.11599 16.7014 6.99487 16.7534L6.86792 16.7974C6.60857 16.865 6.33359 16.8374 6.09253 16.7202C5.96939 16.6604 5.8701 16.5758 5.78296 16.481L5.69897 16.3833C5.41507 16.0287 5.16057 15.644 4.90405 15.2427C4.65068 14.8463 4.39146 14.4273 4.11206 14.0298L4.07397 13.9761L4.02124 13.938L3.41382 13.5327C3.20981 13.4014 3.00561 13.2737 2.80737 13.147C2.40598 12.8904 2.02134 12.635 1.66675 12.3511C1.53326 12.2442 1.40963 12.1217 1.32983 11.9575C1.21279 11.7165 1.18513 11.4413 1.25269 11.1821C1.29879 11.0054 1.39657 10.8611 1.50659 10.73C1.65753 10.5502 1.87552 10.342 2.11401 10.1021C2.23391 9.98146 2.34614 9.87173 2.47534 9.79834C2.59227 9.73193 2.7204 9.68771 2.85327 9.6665C2.99999 9.64308 3.15608 9.65796 3.32495 9.67725C3.7535 9.72622 4.18359 9.77342 4.61011 9.8208C4.71584 9.83256 4.78361 9.83905 4.83667 9.84229V9.84326H4.8396L4.9978 9.854L5.11597 9.74854C5.17919 9.69179 5.24107 9.62733 5.28491 9.5835L7.36401 7.50439L6.78882 7.31201L3.38843 6.1792L2.99683 6.04541C2.8789 6.00362 2.77271 5.96335 2.6814 5.92334C2.49311 5.84073 2.30864 5.73599 2.17944 5.56201C1.99496 5.31356 1.92144 4.99954 1.97534 4.69482C2.0132 4.48117 2.13076 4.30422 2.26245 4.146C2.45038 3.9202 2.65484 3.67322 2.87573 3.44775C3.09826 3.22063 3.31905 3.03513 3.53101 2.92432C3.66587 2.85382 3.81386 2.81203 3.96558 2.80029C4.13315 2.78739 4.30832 2.82521 4.4978 2.86963H4.49878L10.3767 4.22412L10.5828 4.271L10.7302 4.11963L12.9382 1.84814L12.9392 1.84717Z" fill="#E99A00" stroke="#E99A00" stroke-width="0.75"/>
</svg>
