<svg width="24" height="25" viewBox="0 0 24 25" fill="none" xmlns="http://www.w3.org/2000/svg">
<path fill-rule="evenodd" clip-rule="evenodd" d="M8.2587 1.75439H14.7413C15.5463 1.75438 16.2106 1.75437 16.7518 1.79859C17.3139 1.84451 17.8306 1.94307 18.316 2.19037C19.0686 2.57386 19.6805 3.18579 20.064 3.93844C20.3113 4.42378 20.4099 4.94047 20.4558 5.50257C20.5 6.04377 20.5 6.70811 20.5 7.51307V12.356C20.5 12.7383 20.5 12.9294 20.4198 13.0534C20.3496 13.1618 20.2402 13.2389 20.1145 13.2685C19.9708 13.3023 19.7908 13.238 19.4308 13.1094L19.3241 13.0712L19.3229 13.0708L19.3219 13.0704C18.1433 12.6489 16.8544 12.6491 15.6759 13.0708L13.49 13.8523C12.2966 14.279 11.5 15.4097 11.5 16.6772V19.1795C11.5 20.3788 11.8928 21.3881 12.4011 22.1961C12.7921 22.8176 12.9876 23.1283 12.9746 23.2934C12.9619 23.4558 12.9053 23.5584 12.7746 23.6555C12.6418 23.7544 12.3178 23.7544 11.67 23.7544H8.25868C7.45372 23.7544 6.78937 23.7544 6.24818 23.7102C5.68608 23.6643 5.16938 23.5657 4.68404 23.3184C3.93139 22.9349 3.31947 22.323 2.93598 21.5704C2.68868 21.085 2.59012 20.5683 2.5442 20.0062C2.49998 19.465 2.49999 18.8007 2.5 17.9957V7.51308C2.49999 6.70813 2.49998 6.04376 2.5442 5.50257C2.59012 4.94047 2.68868 4.42378 2.93598 3.93844C3.31947 3.18579 3.93139 2.57386 4.68404 2.19037C5.16938 1.94307 5.68608 1.84451 6.24818 1.79859C6.78936 1.75437 7.45375 1.75438 8.2587 1.75439ZM6.5 9.75439C5.94772 9.75439 5.5 10.2021 5.5 10.7544C5.5 11.3067 5.94772 11.7544 6.5 11.7544H12.5C13.0523 11.7544 13.5 11.3067 13.5 10.7544C13.5 10.2021 13.0523 9.75439 12.5 9.75439H6.5ZM5.5 14.7544C5.5 14.2021 5.94772 13.7544 6.5 13.7544H8.5C9.05229 13.7544 9.5 14.2021 9.5 14.7544C9.5 15.3067 9.05229 15.7544 8.5 15.7544H6.5C5.94772 15.7544 5.5 15.3067 5.5 14.7544ZM6.5 5.7544C5.94772 5.7544 5.5 6.20212 5.5 6.7544C5.5 7.30668 5.94772 7.7544 6.5 7.7544H14.5C15.0523 7.7544 15.5 7.30668 15.5 6.7544C15.5 6.20212 15.0523 5.7544 14.5 5.7544H6.5Z" fill="#E99A00"/>
<path d="M20.8365 15.7354L18.6496 14.9539C17.9064 14.6879 17.0924 14.6879 16.3492 14.9539L14.1633 15.7354C13.7655 15.8777 13.5 16.2546 13.5 16.6771V19.1794C13.5 20.7184 14.5565 21.8692 15.3595 22.539C15.7859 22.8947 16.2071 23.1703 16.5194 23.3563C16.6989 23.4632 16.8817 23.5645 17.0692 23.6566C17.2276 23.7322 17.8128 23.7146 17.9812 23.6318C18.0652 23.5898 18.2446 23.4969 18.4806 23.3563C18.7929 23.1703 19.2141 22.8947 19.6405 22.539C20.4436 21.8692 21.5 20.7184 21.5 19.1794V16.6771C21.5 16.2545 21.2344 15.8775 20.8365 15.7354Z" fill="#E99A00"/>
</svg>
