<svg width="36" height="36" viewBox="0 0 36 36" fill="none" xmlns="http://www.w3.org/2000/svg">
<mask id="path-1-inside-1_1704_8032" fill="white">
<path fill-rule="evenodd" clip-rule="evenodd" d="M2.99243 18.75C2.99243 17.9216 3.664 17.25 4.49243 17.25H4.50743C5.33585 17.25 6.00743 17.9216 6.00743 18.75C6.00743 19.5784 5.33585 20.25 4.50743 20.25H4.49243C3.664 20.25 2.99243 19.5784 2.99243 18.75Z"/>
<path fill-rule="evenodd" clip-rule="evenodd" d="M10.4924 26.25C10.4924 25.4216 11.164 24.75 11.9924 24.75H12.0074C12.8359 24.75 13.5074 25.4216 13.5074 26.25C13.5074 27.0784 12.8359 27.75 12.0074 27.75H11.9924C11.164 27.75 10.4924 27.0784 10.4924 26.25Z"/>
<path fill-rule="evenodd" clip-rule="evenodd" d="M16.4924 32.25C16.4924 31.4216 17.164 30.75 17.9924 30.75H18.0074C18.8359 30.75 19.5074 31.4216 19.5074 32.25C19.5074 33.0784 18.8359 33.75 18.0074 33.75H17.9924C17.164 33.75 16.4924 33.0784 16.4924 32.25Z"/>
<path fill-rule="evenodd" clip-rule="evenodd" d="M29.9924 18.75C29.9924 17.9216 30.664 17.25 31.4924 17.25H31.5074C32.3359 17.25 33.0074 17.9216 33.0074 18.75C33.0074 19.5784 32.3359 20.25 31.5074 20.25H31.4924C30.664 20.25 29.9924 19.5784 29.9924 18.75Z"/>
<path fill-rule="evenodd" clip-rule="evenodd" d="M2.99243 26.25C2.99243 25.4216 3.664 24.75 4.49243 24.75H6.74243C7.57085 24.75 8.24243 25.4216 8.24243 26.25C8.24243 27.0784 7.57085 27.75 6.74243 27.75H4.49243C3.664 27.75 2.99243 27.0784 2.99243 26.25Z"/>
<path fill-rule="evenodd" clip-rule="evenodd" d="M21.7424 18.75C21.7424 17.9216 22.414 17.25 23.2424 17.25H26.2424C27.0709 17.25 27.7424 17.9216 27.7424 18.75C27.7424 19.5784 27.0709 20.25 26.2424 20.25H23.2424C22.414 20.25 21.7424 19.5784 21.7424 18.75Z"/>
<path fill-rule="evenodd" clip-rule="evenodd" d="M2.99243 32.25C2.99243 31.4216 3.664 30.75 4.49243 30.75H11.9924C12.8209 30.75 13.4924 31.4216 13.4924 32.25C13.4924 33.0784 12.8209 33.75 11.9924 33.75H4.49243C3.664 33.75 2.99243 33.0784 2.99243 32.25Z"/>
<path fill-rule="evenodd" clip-rule="evenodd" d="M17.9924 2.25C18.8209 2.25 19.4924 2.92158 19.4924 3.75V12.75C19.4924 13.5784 18.8209 14.25 17.9924 14.25C17.164 14.25 16.4924 13.5784 16.4924 12.75V3.75C16.4924 2.92158 17.164 2.25 17.9924 2.25Z"/>
<path fill-rule="evenodd" clip-rule="evenodd" d="M26.3446 23.25C26.3605 23.25 26.3765 23.25 26.3924 23.25H29.0924C29.1083 23.25 29.1244 23.25 29.1403 23.25C29.5189 23.25 29.8876 23.2499 30.1997 23.2754C30.5426 23.3034 30.9473 23.3696 31.3544 23.577C31.9189 23.8646 32.3779 24.3235 32.6654 24.888C32.8729 25.2951 32.939 25.6998 32.9671 26.0427C32.9926 26.3548 32.9924 26.7235 32.9924 27.1021C32.9924 27.118 32.9924 27.1341 32.9924 27.15V29.85C32.9924 29.8659 32.9924 29.882 32.9924 29.8979C32.9924 30.2765 32.9926 30.6452 32.9671 30.9573C32.939 31.3002 32.8729 31.7049 32.6654 32.112C32.3779 32.6765 31.9189 33.1354 31.3544 33.423C30.9473 33.6304 30.5426 33.6966 30.1997 33.7247C29.8876 33.7502 29.5189 33.75 29.1403 33.75C29.1244 33.75 29.1083 33.75 29.0924 33.75H26.3924C26.3765 33.75 26.3605 33.75 26.3446 33.75C25.966 33.75 25.5973 33.7502 25.2851 33.7247C24.9422 33.6966 24.5375 33.6304 24.1304 33.423C23.566 33.1354 23.107 32.6765 22.8194 32.112C22.612 31.7049 22.5458 31.3002 22.5179 30.9573C22.4923 30.6452 22.4924 30.2765 22.4924 29.8979C22.4924 29.882 22.4924 29.8659 22.4924 29.85V27.15C22.4924 27.1341 22.4924 27.118 22.4924 27.1021C22.4924 26.7235 22.4923 26.3548 22.5179 26.0427C22.5458 25.6998 22.612 25.2951 22.8194 24.888C23.107 24.3235 23.566 23.8646 24.1304 23.577C24.5375 23.3696 24.9422 23.3034 25.2851 23.2754C25.5973 23.2499 25.966 23.25 26.3446 23.25Z"/>
<path fill-rule="evenodd" clip-rule="evenodd" d="M8.99243 18.75C8.99243 17.9216 9.664 17.25 10.4924 17.25H17.9924C18.8209 17.25 19.4924 17.9216 19.4924 18.75V26.25C19.4924 27.0784 18.8209 27.75 17.9924 27.75C17.164 27.75 16.4924 27.0784 16.4924 26.25V20.25H10.4924C9.664 20.25 8.99243 19.5784 8.99243 18.75Z"/>
<path fill-rule="evenodd" clip-rule="evenodd" d="M26.3446 3.75C26.3605 3.75 26.3765 3.75 26.3924 3.75H29.0924C29.1083 3.75 29.1244 3.75 29.1403 3.75C29.5189 3.74996 29.8876 3.74991 30.1997 3.77543C30.5426 3.80343 30.9473 3.86954 31.3544 4.07699C31.9189 4.3646 32.3779 4.82354 32.6654 5.38803C32.8729 5.79516 32.939 6.19977 32.9671 6.54266C32.9926 6.8549 32.9924 7.22358 32.9924 7.60215C32.9924 7.61808 32.9924 7.63404 32.9924 7.65V10.35C32.9924 10.366 32.9924 10.3819 32.9924 10.3979C32.9924 10.7764 32.9926 11.1451 32.9671 11.4573C32.939 11.8002 32.8729 12.2048 32.6654 12.612C32.3779 13.1765 31.9189 13.6354 31.3544 13.923C30.9473 14.1305 30.5426 14.1966 30.1997 14.2246C29.8876 14.2501 29.5189 14.25 29.1403 14.25C29.1244 14.25 29.1083 14.25 29.0924 14.25H26.3924C26.3765 14.25 26.3605 14.25 26.3446 14.25C25.966 14.25 25.5973 14.2501 25.2851 14.2246C24.9422 14.1966 24.5375 14.1305 24.1304 13.923C23.566 13.6354 23.107 13.1765 22.8194 12.612C22.612 12.2048 22.5458 11.8002 22.5179 11.4573C22.4923 11.1451 22.4924 10.7764 22.4924 10.3979C22.4924 10.3819 22.4924 10.366 22.4924 10.35V7.65C22.4924 7.63404 22.4924 7.61808 22.4924 7.60215C22.4924 7.22358 22.4923 6.8549 22.5179 6.54266C22.5458 6.19977 22.612 5.79516 22.8194 5.38803C23.107 4.82354 23.566 4.3646 24.1304 4.07699C24.5375 3.86954 24.9422 3.80343 25.2851 3.77543C25.5973 3.74991 25.966 3.74996 26.3446 3.75Z"/>
<path fill-rule="evenodd" clip-rule="evenodd" d="M6.8446 3.75C6.86053 3.75 6.87648 3.75 6.89245 3.75H9.59245C9.60841 3.75 9.62436 3.75 9.64029 3.75C10.0189 3.74996 10.3876 3.74991 10.6998 3.77543C11.0427 3.80343 11.4473 3.86954 11.8544 4.07699C12.4189 4.3646 12.8778 4.82354 13.1655 5.38803C13.3729 5.79516 13.439 6.19977 13.467 6.54266C13.4925 6.8549 13.4925 7.22358 13.4924 7.60215C13.4924 7.61808 13.4924 7.63404 13.4924 7.65V10.35C13.4924 10.366 13.4924 10.3819 13.4924 10.3979C13.4925 10.7764 13.4925 11.1451 13.467 11.4573C13.439 11.8002 13.3729 12.2048 13.1655 12.612C12.8778 13.1765 12.4189 13.6354 11.8544 13.923C11.4473 14.1305 11.0427 14.1966 10.6998 14.2246C10.3876 14.2501 10.0189 14.25 9.64029 14.25C9.62436 14.25 9.60841 14.25 9.59245 14.25H6.89245C6.87648 14.25 6.86053 14.25 6.8446 14.25C6.46602 14.25 6.09733 14.2501 5.78511 14.2246C5.44221 14.1966 5.03761 14.1305 4.63047 13.923C4.06599 13.6354 3.60705 13.1765 3.31942 12.612C3.11197 12.2048 3.04588 11.8002 3.01786 11.4573C2.99235 11.1451 2.99239 10.7764 2.99244 10.3979C2.99244 10.3819 2.99245 10.366 2.99245 10.35V7.65C2.99245 7.63404 2.99244 7.61808 2.99244 7.60215C2.99239 7.22358 2.99235 6.8549 3.01786 6.54266C3.04588 6.19977 3.11197 5.79516 3.31942 5.38803C3.60705 4.82354 4.06599 4.3646 4.63047 4.07699C5.03761 3.86954 5.44221 3.80343 5.78511 3.77543C6.09733 3.74991 6.46602 3.74996 6.8446 3.75Z"/>
</mask>
<path fill-rule="evenodd" clip-rule="evenodd" d="M2.99243 18.75C2.99243 17.9216 3.664 17.25 4.49243 17.25H4.50743C5.33585 17.25 6.00743 17.9216 6.00743 18.75C6.00743 19.5784 5.33585 20.25 4.50743 20.25H4.49243C3.664 20.25 2.99243 19.5784 2.99243 18.75Z" fill="#E99A00"/>
<path fill-rule="evenodd" clip-rule="evenodd" d="M10.4924 26.25C10.4924 25.4216 11.164 24.75 11.9924 24.75H12.0074C12.8359 24.75 13.5074 25.4216 13.5074 26.25C13.5074 27.0784 12.8359 27.75 12.0074 27.75H11.9924C11.164 27.75 10.4924 27.0784 10.4924 26.25Z" fill="#E99A00"/>
<path fill-rule="evenodd" clip-rule="evenodd" d="M16.4924 32.25C16.4924 31.4216 17.164 30.75 17.9924 30.75H18.0074C18.8359 30.75 19.5074 31.4216 19.5074 32.25C19.5074 33.0784 18.8359 33.75 18.0074 33.75H17.9924C17.164 33.75 16.4924 33.0784 16.4924 32.25Z" fill="#E99A00"/>
<path fill-rule="evenodd" clip-rule="evenodd" d="M29.9924 18.75C29.9924 17.9216 30.664 17.25 31.4924 17.25H31.5074C32.3359 17.25 33.0074 17.9216 33.0074 18.75C33.0074 19.5784 32.3359 20.25 31.5074 20.25H31.4924C30.664 20.25 29.9924 19.5784 29.9924 18.75Z" fill="#E99A00"/>
<path fill-rule="evenodd" clip-rule="evenodd" d="M2.99243 26.25C2.99243 25.4216 3.664 24.75 4.49243 24.75H6.74243C7.57085 24.75 8.24243 25.4216 8.24243 26.25C8.24243 27.0784 7.57085 27.75 6.74243 27.75H4.49243C3.664 27.75 2.99243 27.0784 2.99243 26.25Z" fill="#E99A00"/>
<path fill-rule="evenodd" clip-rule="evenodd" d="M21.7424 18.75C21.7424 17.9216 22.414 17.25 23.2424 17.25H26.2424C27.0709 17.25 27.7424 17.9216 27.7424 18.75C27.7424 19.5784 27.0709 20.25 26.2424 20.25H23.2424C22.414 20.25 21.7424 19.5784 21.7424 18.75Z" fill="#E99A00"/>
<path fill-rule="evenodd" clip-rule="evenodd" d="M2.99243 32.25C2.99243 31.4216 3.664 30.75 4.49243 30.75H11.9924C12.8209 30.75 13.4924 31.4216 13.4924 32.25C13.4924 33.0784 12.8209 33.75 11.9924 33.75H4.49243C3.664 33.75 2.99243 33.0784 2.99243 32.25Z" fill="#E99A00"/>
<path fill-rule="evenodd" clip-rule="evenodd" d="M17.9924 2.25C18.8209 2.25 19.4924 2.92158 19.4924 3.75V12.75C19.4924 13.5784 18.8209 14.25 17.9924 14.25C17.164 14.25 16.4924 13.5784 16.4924 12.75V3.75C16.4924 2.92158 17.164 2.25 17.9924 2.25Z" fill="#E99A00"/>
<path fill-rule="evenodd" clip-rule="evenodd" d="M26.3446 23.25C26.3605 23.25 26.3765 23.25 26.3924 23.25H29.0924C29.1083 23.25 29.1244 23.25 29.1403 23.25C29.5189 23.25 29.8876 23.2499 30.1997 23.2754C30.5426 23.3034 30.9473 23.3696 31.3544 23.577C31.9189 23.8646 32.3779 24.3235 32.6654 24.888C32.8729 25.2951 32.939 25.6998 32.9671 26.0427C32.9926 26.3548 32.9924 26.7235 32.9924 27.1021C32.9924 27.118 32.9924 27.1341 32.9924 27.15V29.85C32.9924 29.8659 32.9924 29.882 32.9924 29.8979C32.9924 30.2765 32.9926 30.6452 32.9671 30.9573C32.939 31.3002 32.8729 31.7049 32.6654 32.112C32.3779 32.6765 31.9189 33.1354 31.3544 33.423C30.9473 33.6304 30.5426 33.6966 30.1997 33.7247C29.8876 33.7502 29.5189 33.75 29.1403 33.75C29.1244 33.75 29.1083 33.75 29.0924 33.75H26.3924C26.3765 33.75 26.3605 33.75 26.3446 33.75C25.966 33.75 25.5973 33.7502 25.2851 33.7247C24.9422 33.6966 24.5375 33.6304 24.1304 33.423C23.566 33.1354 23.107 32.6765 22.8194 32.112C22.612 31.7049 22.5458 31.3002 22.5179 30.9573C22.4923 30.6452 22.4924 30.2765 22.4924 29.8979C22.4924 29.882 22.4924 29.8659 22.4924 29.85V27.15C22.4924 27.1341 22.4924 27.118 22.4924 27.1021C22.4924 26.7235 22.4923 26.3548 22.5179 26.0427C22.5458 25.6998 22.612 25.2951 22.8194 24.888C23.107 24.3235 23.566 23.8646 24.1304 23.577C24.5375 23.3696 24.9422 23.3034 25.2851 23.2754C25.5973 23.2499 25.966 23.25 26.3446 23.25Z" fill="#E99A00"/>
<path fill-rule="evenodd" clip-rule="evenodd" d="M8.99243 18.75C8.99243 17.9216 9.664 17.25 10.4924 17.25H17.9924C18.8209 17.25 19.4924 17.9216 19.4924 18.75V26.25C19.4924 27.0784 18.8209 27.75 17.9924 27.75C17.164 27.75 16.4924 27.0784 16.4924 26.25V20.25H10.4924C9.664 20.25 8.99243 19.5784 8.99243 18.75Z" fill="#E99A00"/>
<path fill-rule="evenodd" clip-rule="evenodd" d="M26.3446 3.75C26.3605 3.75 26.3765 3.75 26.3924 3.75H29.0924C29.1083 3.75 29.1244 3.75 29.1403 3.75C29.5189 3.74996 29.8876 3.74991 30.1997 3.77543C30.5426 3.80343 30.9473 3.86954 31.3544 4.07699C31.9189 4.3646 32.3779 4.82354 32.6654 5.38803C32.8729 5.79516 32.939 6.19977 32.9671 6.54266C32.9926 6.8549 32.9924 7.22358 32.9924 7.60215C32.9924 7.61808 32.9924 7.63404 32.9924 7.65V10.35C32.9924 10.366 32.9924 10.3819 32.9924 10.3979C32.9924 10.7764 32.9926 11.1451 32.9671 11.4573C32.939 11.8002 32.8729 12.2048 32.6654 12.612C32.3779 13.1765 31.9189 13.6354 31.3544 13.923C30.9473 14.1305 30.5426 14.1966 30.1997 14.2246C29.8876 14.2501 29.5189 14.25 29.1403 14.25C29.1244 14.25 29.1083 14.25 29.0924 14.25H26.3924C26.3765 14.25 26.3605 14.25 26.3446 14.25C25.966 14.25 25.5973 14.2501 25.2851 14.2246C24.9422 14.1966 24.5375 14.1305 24.1304 13.923C23.566 13.6354 23.107 13.1765 22.8194 12.612C22.612 12.2048 22.5458 11.8002 22.5179 11.4573C22.4923 11.1451 22.4924 10.7764 22.4924 10.3979C22.4924 10.3819 22.4924 10.366 22.4924 10.35V7.65C22.4924 7.63404 22.4924 7.61808 22.4924 7.60215C22.4924 7.22358 22.4923 6.8549 22.5179 6.54266C22.5458 6.19977 22.612 5.79516 22.8194 5.38803C23.107 4.82354 23.566 4.3646 24.1304 4.07699C24.5375 3.86954 24.9422 3.80343 25.2851 3.77543C25.5973 3.74991 25.966 3.74996 26.3446 3.75Z" fill="#E99A00"/>
<path fill-rule="evenodd" clip-rule="evenodd" d="M6.8446 3.75C6.86053 3.75 6.87648 3.75 6.89245 3.75H9.59245C9.60841 3.75 9.62436 3.75 9.64029 3.75C10.0189 3.74996 10.3876 3.74991 10.6998 3.77543C11.0427 3.80343 11.4473 3.86954 11.8544 4.07699C12.4189 4.3646 12.8778 4.82354 13.1655 5.38803C13.3729 5.79516 13.439 6.19977 13.467 6.54266C13.4925 6.8549 13.4925 7.22358 13.4924 7.60215C13.4924 7.61808 13.4924 7.63404 13.4924 7.65V10.35C13.4924 10.366 13.4924 10.3819 13.4924 10.3979C13.4925 10.7764 13.4925 11.1451 13.467 11.4573C13.439 11.8002 13.3729 12.2048 13.1655 12.612C12.8778 13.1765 12.4189 13.6354 11.8544 13.923C11.4473 14.1305 11.0427 14.1966 10.6998 14.2246C10.3876 14.2501 10.0189 14.25 9.64029 14.25C9.62436 14.25 9.60841 14.25 9.59245 14.25H6.89245C6.87648 14.25 6.86053 14.25 6.8446 14.25C6.46602 14.25 6.09733 14.2501 5.78511 14.2246C5.44221 14.1966 5.03761 14.1305 4.63047 13.923C4.06599 13.6354 3.60705 13.1765 3.31942 12.612C3.11197 12.2048 3.04588 11.8002 3.01786 11.4573C2.99235 11.1451 2.99239 10.7764 2.99244 10.3979C2.99244 10.3819 2.99245 10.366 2.99245 10.35V7.65C2.99245 7.63404 2.99244 7.61808 2.99244 7.60215C2.99239 7.22358 2.99235 6.8549 3.01786 6.54266C3.04588 6.19977 3.11197 5.79516 3.31942 5.38803C3.60705 4.82354 4.06599 4.3646 4.63047 4.07699C5.03761 3.86954 5.44221 3.80343 5.78511 3.77543C6.09733 3.74991 6.46602 3.74996 6.8446 3.75Z" fill="#E99A00"/>
<path fill-rule="evenodd" clip-rule="evenodd" d="M2.99243 18.75C2.99243 17.9216 3.664 17.25 4.49243 17.25H4.50743C5.33585 17.25 6.00743 17.9216 6.00743 18.75C6.00743 19.5784 5.33585 20.25 4.50743 20.25H4.49243C3.664 20.25 2.99243 19.5784 2.99243 18.75Z" stroke="#E99A00" stroke-width="3" mask="url(#path-1-inside-1_1704_8032)"/>
<path fill-rule="evenodd" clip-rule="evenodd" d="M10.4924 26.25C10.4924 25.4216 11.164 24.75 11.9924 24.75H12.0074C12.8359 24.75 13.5074 25.4216 13.5074 26.25C13.5074 27.0784 12.8359 27.75 12.0074 27.75H11.9924C11.164 27.75 10.4924 27.0784 10.4924 26.25Z" stroke="#E99A00" stroke-width="3" mask="url(#path-1-inside-1_1704_8032)"/>
<path fill-rule="evenodd" clip-rule="evenodd" d="M16.4924 32.25C16.4924 31.4216 17.164 30.75 17.9924 30.75H18.0074C18.8359 30.75 19.5074 31.4216 19.5074 32.25C19.5074 33.0784 18.8359 33.75 18.0074 33.75H17.9924C17.164 33.75 16.4924 33.0784 16.4924 32.25Z" stroke="#E99A00" stroke-width="3" mask="url(#path-1-inside-1_1704_8032)"/>
<path fill-rule="evenodd" clip-rule="evenodd" d="M29.9924 18.75C29.9924 17.9216 30.664 17.25 31.4924 17.25H31.5074C32.3359 17.25 33.0074 17.9216 33.0074 18.75C33.0074 19.5784 32.3359 20.25 31.5074 20.25H31.4924C30.664 20.25 29.9924 19.5784 29.9924 18.75Z" stroke="#E99A00" stroke-width="3" mask="url(#path-1-inside-1_1704_8032)"/>
<path fill-rule="evenodd" clip-rule="evenodd" d="M2.99243 26.25C2.99243 25.4216 3.664 24.75 4.49243 24.75H6.74243C7.57085 24.75 8.24243 25.4216 8.24243 26.25C8.24243 27.0784 7.57085 27.75 6.74243 27.75H4.49243C3.664 27.75 2.99243 27.0784 2.99243 26.25Z" stroke="#E99A00" stroke-width="3" mask="url(#path-1-inside-1_1704_8032)"/>
<path fill-rule="evenodd" clip-rule="evenodd" d="M21.7424 18.75C21.7424 17.9216 22.414 17.25 23.2424 17.25H26.2424C27.0709 17.25 27.7424 17.9216 27.7424 18.75C27.7424 19.5784 27.0709 20.25 26.2424 20.25H23.2424C22.414 20.25 21.7424 19.5784 21.7424 18.75Z" stroke="#E99A00" stroke-width="3" mask="url(#path-1-inside-1_1704_8032)"/>
<path fill-rule="evenodd" clip-rule="evenodd" d="M2.99243 32.25C2.99243 31.4216 3.664 30.75 4.49243 30.75H11.9924C12.8209 30.75 13.4924 31.4216 13.4924 32.25C13.4924 33.0784 12.8209 33.75 11.9924 33.75H4.49243C3.664 33.75 2.99243 33.0784 2.99243 32.25Z" stroke="#E99A00" stroke-width="3" mask="url(#path-1-inside-1_1704_8032)"/>
<path fill-rule="evenodd" clip-rule="evenodd" d="M17.9924 2.25C18.8209 2.25 19.4924 2.92158 19.4924 3.75V12.75C19.4924 13.5784 18.8209 14.25 17.9924 14.25C17.164 14.25 16.4924 13.5784 16.4924 12.75V3.75C16.4924 2.92158 17.164 2.25 17.9924 2.25Z" stroke="#E99A00" stroke-width="3" mask="url(#path-1-inside-1_1704_8032)"/>
<path fill-rule="evenodd" clip-rule="evenodd" d="M26.3446 23.25C26.3605 23.25 26.3765 23.25 26.3924 23.25H29.0924C29.1083 23.25 29.1244 23.25 29.1403 23.25C29.5189 23.25 29.8876 23.2499 30.1997 23.2754C30.5426 23.3034 30.9473 23.3696 31.3544 23.577C31.9189 23.8646 32.3779 24.3235 32.6654 24.888C32.8729 25.2951 32.939 25.6998 32.9671 26.0427C32.9926 26.3548 32.9924 26.7235 32.9924 27.1021C32.9924 27.118 32.9924 27.1341 32.9924 27.15V29.85C32.9924 29.8659 32.9924 29.882 32.9924 29.8979C32.9924 30.2765 32.9926 30.6452 32.9671 30.9573C32.939 31.3002 32.8729 31.7049 32.6654 32.112C32.3779 32.6765 31.9189 33.1354 31.3544 33.423C30.9473 33.6304 30.5426 33.6966 30.1997 33.7247C29.8876 33.7502 29.5189 33.75 29.1403 33.75C29.1244 33.75 29.1083 33.75 29.0924 33.75H26.3924C26.3765 33.75 26.3605 33.75 26.3446 33.75C25.966 33.75 25.5973 33.7502 25.2851 33.7247C24.9422 33.6966 24.5375 33.6304 24.1304 33.423C23.566 33.1354 23.107 32.6765 22.8194 32.112C22.612 31.7049 22.5458 31.3002 22.5179 30.9573C22.4923 30.6452 22.4924 30.2765 22.4924 29.8979C22.4924 29.882 22.4924 29.8659 22.4924 29.85V27.15C22.4924 27.1341 22.4924 27.118 22.4924 27.1021C22.4924 26.7235 22.4923 26.3548 22.5179 26.0427C22.5458 25.6998 22.612 25.2951 22.8194 24.888C23.107 24.3235 23.566 23.8646 24.1304 23.577C24.5375 23.3696 24.9422 23.3034 25.2851 23.2754C25.5973 23.2499 25.966 23.25 26.3446 23.25Z" stroke="#E99A00" stroke-width="3" mask="url(#path-1-inside-1_1704_8032)"/>
<path fill-rule="evenodd" clip-rule="evenodd" d="M8.99243 18.75C8.99243 17.9216 9.664 17.25 10.4924 17.25H17.9924C18.8209 17.25 19.4924 17.9216 19.4924 18.75V26.25C19.4924 27.0784 18.8209 27.75 17.9924 27.75C17.164 27.75 16.4924 27.0784 16.4924 26.25V20.25H10.4924C9.664 20.25 8.99243 19.5784 8.99243 18.75Z" stroke="#E99A00" stroke-width="3" mask="url(#path-1-inside-1_1704_8032)"/>
<path fill-rule="evenodd" clip-rule="evenodd" d="M26.3446 3.75C26.3605 3.75 26.3765 3.75 26.3924 3.75H29.0924C29.1083 3.75 29.1244 3.75 29.1403 3.75C29.5189 3.74996 29.8876 3.74991 30.1997 3.77543C30.5426 3.80343 30.9473 3.86954 31.3544 4.07699C31.9189 4.3646 32.3779 4.82354 32.6654 5.38803C32.8729 5.79516 32.939 6.19977 32.9671 6.54266C32.9926 6.8549 32.9924 7.22358 32.9924 7.60215C32.9924 7.61808 32.9924 7.63404 32.9924 7.65V10.35C32.9924 10.366 32.9924 10.3819 32.9924 10.3979C32.9924 10.7764 32.9926 11.1451 32.9671 11.4573C32.939 11.8002 32.8729 12.2048 32.6654 12.612C32.3779 13.1765 31.9189 13.6354 31.3544 13.923C30.9473 14.1305 30.5426 14.1966 30.1997 14.2246C29.8876 14.2501 29.5189 14.25 29.1403 14.25C29.1244 14.25 29.1083 14.25 29.0924 14.25H26.3924C26.3765 14.25 26.3605 14.25 26.3446 14.25C25.966 14.25 25.5973 14.2501 25.2851 14.2246C24.9422 14.1966 24.5375 14.1305 24.1304 13.923C23.566 13.6354 23.107 13.1765 22.8194 12.612C22.612 12.2048 22.5458 11.8002 22.5179 11.4573C22.4923 11.1451 22.4924 10.7764 22.4924 10.3979C22.4924 10.3819 22.4924 10.366 22.4924 10.35V7.65C22.4924 7.63404 22.4924 7.61808 22.4924 7.60215C22.4924 7.22358 22.4923 6.8549 22.5179 6.54266C22.5458 6.19977 22.612 5.79516 22.8194 5.38803C23.107 4.82354 23.566 4.3646 24.1304 4.07699C24.5375 3.86954 24.9422 3.80343 25.2851 3.77543C25.5973 3.74991 25.966 3.74996 26.3446 3.75Z" stroke="#E99A00" stroke-width="3" mask="url(#path-1-inside-1_1704_8032)"/>
<path fill-rule="evenodd" clip-rule="evenodd" d="M6.8446 3.75C6.86053 3.75 6.87648 3.75 6.89245 3.75H9.59245C9.60841 3.75 9.62436 3.75 9.64029 3.75C10.0189 3.74996 10.3876 3.74991 10.6998 3.77543C11.0427 3.80343 11.4473 3.86954 11.8544 4.07699C12.4189 4.3646 12.8778 4.82354 13.1655 5.38803C13.3729 5.79516 13.439 6.19977 13.467 6.54266C13.4925 6.8549 13.4925 7.22358 13.4924 7.60215C13.4924 7.61808 13.4924 7.63404 13.4924 7.65V10.35C13.4924 10.366 13.4924 10.3819 13.4924 10.3979C13.4925 10.7764 13.4925 11.1451 13.467 11.4573C13.439 11.8002 13.3729 12.2048 13.1655 12.612C12.8778 13.1765 12.4189 13.6354 11.8544 13.923C11.4473 14.1305 11.0427 14.1966 10.6998 14.2246C10.3876 14.2501 10.0189 14.25 9.64029 14.25C9.62436 14.25 9.60841 14.25 9.59245 14.25H6.89245C6.87648 14.25 6.86053 14.25 6.8446 14.25C6.46602 14.25 6.09733 14.2501 5.78511 14.2246C5.44221 14.1966 5.03761 14.1305 4.63047 13.923C4.06599 13.6354 3.60705 13.1765 3.31942 12.612C3.11197 12.2048 3.04588 11.8002 3.01786 11.4573C2.99235 11.1451 2.99239 10.7764 2.99244 10.3979C2.99244 10.3819 2.99245 10.366 2.99245 10.35V7.65C2.99245 7.63404 2.99244 7.61808 2.99244 7.60215C2.99239 7.22358 2.99235 6.8549 3.01786 6.54266C3.04588 6.19977 3.11197 5.79516 3.31942 5.38803C3.60705 4.82354 4.06599 4.3646 4.63047 4.07699C5.03761 3.86954 5.44221 3.80343 5.78511 3.77543C6.09733 3.74991 6.46602 3.74996 6.8446 3.75Z" stroke="#E99A00" stroke-width="3" mask="url(#path-1-inside-1_1704_8032)"/>
</svg>
