<svg width="48" height="48" viewBox="0 0 48 48" fill="none" xmlns="http://www.w3.org/2000/svg">
<g clip-path="url(#clip0_3804_3053)">
<path d="M1 30.8696C3.95463 40.7765 13.1332 48.0001 24.0005 48.0001C34.8678 48.0001 44.0464 40.7765 47.0011 30.8696L24.7986 28.4343L1 30.8696Z" fill="#F9E1B3"/>
<path d="M32.6209 12.1122L21.9727 32.7039L23.2683 33.3739L28.6832 24.0001L33.7944 12.719L32.6209 12.1122Z" fill="white"/>
<path d="M24.2048 33.858L23.0527 33.2622L33.7978 12.5679L34.853 13.2663L24.2048 33.858Z" fill="#E9EDF5"/>
<path d="M10.7939 20.678V26.8144H12.9736V22.8577H15.0409L15.5128 21.7883L15.0409 20.678H10.7939Z" fill="#414952"/>
<path d="M14.9775 20.678V22.8577H16.9895V26.8144H19.1691V20.678H14.9775Z" fill="#23272B"/>
<path d="M6.69238 28.6196V34.5688H15.0411L15.6353 31.2715L15.0411 28.6196H6.69238Z" fill="#636978"/>
<path d="M14.9775 28.6196H23.2709V34.5688H14.9775V28.6196Z" fill="#414952"/>
<path d="M6.69238 24.0077V28.6196L14.9106 30.3838L15.0411 30.3563L15.8016 27.1958L15.0411 24.0077H6.69238Z" fill="#555A66"/>
<path d="M23.2709 24.0077H14.9775V30.3698L23.2709 28.6196V24.0077Z" fill="#333940"/>
<path d="M13.9146 29.5632V31.7787H15.0408L15.3497 30.7723L15.0408 29.5632H13.9146Z" fill="#FFCE00"/>
<path d="M14.9775 29.5632H16.0484V31.7788H14.9775V29.5632Z" fill="#FDBA12"/>
<path d="M35.2508 9.7618C29.1145 6.58864 21.5677 8.99079 18.3945 15.1271L22.3448 17.1698L30.0389 19.4872L30.2592 19.6563L33.104 15.5613L35.2906 9.78308C35.2773 9.77614 35.2642 9.76873 35.2508 9.7618Z" fill="#E99A00"/>
<path d="M35.2513 9.76184C41.3876 12.935 43.7897 20.4818 40.6166 26.6181L36.6666 24.5756L30.0396 19.4873L35.2513 9.76184Z" fill="#E99A00"/>
<path d="M35.2508 9.76189C31.2962 7.71692 25.5179 11.0335 22.3447 17.1698L26.5071 19.3222L30.0391 19.4872L30.2297 19.7144L32.9377 15.8227L35.2906 9.78345C35.2773 9.77642 35.2642 9.76883 35.2508 9.76189Z" fill="white"/>
<path d="M35.2513 9.76184C39.206 11.8068 39.8395 18.4391 36.6665 24.5754L32.5032 22.4225L30.0396 19.4872L35.2513 9.76184Z" fill="#E9EDF5"/>
<path d="M35.2514 9.76185C33.5956 8.90564 29.681 13.186 26.5078 19.3223L29.612 20.9275L32.9145 15.9891L35.2906 9.78454C35.2776 9.77695 35.2648 9.76879 35.2514 9.76185Z" fill="#E99A00"/>
<path d="M29.499 20.8692L35.251 9.76184C36.9068 10.6181 35.6767 16.2867 32.5035 22.423L29.499 20.8692Z" fill="#D48C00"/>
</g>
<defs>
<clipPath id="clip0_3804_3053">
<rect width="48" height="48" fill="white"/>
</clipPath>
</defs>
</svg>
