<svg width="25" height="24" viewBox="0 0 25 24" fill="none" xmlns="http://www.w3.org/2000/svg">
<path d="M2.1181 15.794C2.58802 16.1595 3.16327 16.4224 3.74408 16.6124C4.95627 17.0088 6.52018 17.1984 8.16595 17.1446C9.07135 17.115 9.94399 17.0135 10.7411 16.8507L10.9384 16.8096C10.9974 16.8644 11.0569 16.9162 11.1161 16.9639C11.5941 17.3482 12.1884 17.6213 12.788 17.8175C14.0002 18.2139 15.5642 18.4035 17.2099 18.3497C18.8555 18.2959 20.4032 18.005 21.5869 17.5303C22.1544 17.3027 22.711 17.0013 23.1562 16.6055L23.2226 18.6534C23.2362 19.0692 23.0442 19.4258 22.7744 19.712L22.6552 19.8301C22.4071 20.0579 22.0886 20.259 21.7245 20.4337L21.3456 20.5997C20.2958 21.0208 18.8681 21.2967 17.3076 21.3477C15.7474 21.3987 14.3054 21.2168 13.2304 20.8653C12.695 20.6902 12.2231 20.4643 11.873 20.1827C11.6731 20.0219 11.4922 19.8235 11.374 19.5938L11.1982 19.251L10.8222 19.3341C10.0434 19.5048 9.16782 19.6126 8.24701 19.6426C6.68679 19.6936 5.24487 19.5117 4.16986 19.1602C3.63444 18.9851 3.16251 18.7592 2.81244 18.4776C2.46265 18.1962 2.18441 17.815 2.16888 17.3399L2.1181 15.794ZM16.8828 8.35456C18.4433 8.30358 19.8858 8.48633 20.9609 8.83796C21.4962 9.01307 21.9673 9.23903 22.3173 9.52058C22.667 9.80192 22.9452 10.1824 22.9609 10.6573L23.0263 12.6563C23.0418 13.1314 22.7886 13.5294 22.4579 13.8331C22.1271 14.1368 21.6719 14.393 21.1494 14.6026C20.0995 15.0237 18.6718 15.3006 17.1113 15.3516C15.5507 15.4026 14.1082 15.2199 13.0331 14.8682C12.4979 14.6931 12.0268 14.4671 11.6767 14.1856C11.4858 14.032 11.3116 13.844 11.1933 13.627V13.626L11.1494 13.5577C11.0523 13.426 10.9023 13.3339 10.7304 13.3145L10.6425 13.3116C10.3106 13.3226 10.0506 13.6007 10.0615 13.9327V13.9464C9.4362 14.0526 8.76425 14.1228 8.06732 14.1456C6.50679 14.1966 5.06432 14.0148 3.9892 13.6632C3.45393 13.4881 2.98279 13.262 2.63275 12.9805C2.28293 12.6991 2.00375 12.318 1.98822 11.8428C1.97724 11.5066 1.96924 11.1542 1.9599 10.7999C2.43506 11.1691 3.00256 11.4264 3.58002 11.6153C4.7922 12.0118 6.35611 12.2003 8.00189 12.1466C8.91694 12.1166 9.79845 12.0135 10.6025 11.8477L11.0908 11.7471L10.9921 11.2589C10.9787 11.1926 10.9701 11.123 10.9677 11.0499C10.9522 10.5748 11.2054 10.1768 11.5361 9.87312C11.867 9.5693 12.3219 9.3123 12.8447 9.10261C13.3161 8.9135 13.8667 8.75315 14.4745 8.62897C15.2127 8.47818 16.0294 8.38245 16.8828 8.35456ZM7.69232 2.65241C9.25284 2.60143 10.6954 2.78321 11.7704 3.13483C12.3057 3.30994 12.7769 3.53592 13.1269 3.81745C13.4767 4.09887 13.7549 4.47999 13.7704 4.95515L13.8193 6.45417C13.8347 6.92916 13.5824 7.32734 13.2519 7.63093C12.921 7.93475 12.4651 8.19077 11.9423 8.40046C10.8925 8.82154 9.46481 9.09751 7.90424 9.14851C6.34374 9.19948 4.90119 9.01771 3.82611 8.66608C3.29085 8.49099 2.81965 8.26497 2.46967 7.98347C2.11987 7.70207 1.84164 7.32094 1.82611 6.84577L1.77728 5.34675C1.76176 4.87173 2.01414 4.47359 2.34467 4.16999C2.6545 3.8855 3.07511 3.64204 3.55853 3.43952C3.59017 3.42627 3.62212 3.41335 3.65424 3.40046C4.70411 2.97938 6.13174 2.70341 7.69232 2.65241Z" fill="#E99A00" stroke="#E99A00"/>
</svg>
