<svg width="18" height="18" viewBox="0 0 18 18" fill="none" xmlns="http://www.w3.org/2000/svg">
<path d="M9 1.125C9.25126 1.12496 9.49743 1.18797 9.71582 1.30664L9.80762 1.36035C10.0474 1.51393 10.2362 1.73242 10.3516 1.98828V1.98926L10.8447 3.07324C11.0509 3.53233 11.3991 3.91488 11.8379 4.16602H11.8389C12.2793 4.41627 12.7882 4.52287 13.293 4.4707H13.2939L14.4912 4.34473C14.7765 4.31504 15.0642 4.36807 15.3193 4.49609C15.5744 4.62412 15.7856 4.82172 15.9277 5.06445C16.07 5.30683 16.1378 5.58451 16.123 5.86328C16.1082 6.14217 16.0113 6.41189 15.8438 6.63867L15.1348 7.59863C14.835 8.00482 14.6732 8.49457 14.6729 8.99805C14.6703 9.50362 14.8302 9.99653 15.1299 10.4053L15.1309 10.4062L15.8398 11.3662C16.0073 11.5929 16.1042 11.8617 16.1191 12.1406C16.134 12.4193 16.0669 12.697 15.9248 12.9395L15.9238 12.9404C15.7817 13.183 15.5705 13.3808 15.3154 13.5088C15.0924 13.6207 14.8444 13.675 14.5947 13.667L14.4873 13.6592L13.29 13.5342C12.785 13.4819 12.2756 13.5885 11.835 13.8389H11.834C11.4507 14.0575 11.1361 14.376 10.9248 14.7588L10.8408 14.9268L10.3516 16.0117C10.2506 16.2355 10.0938 16.4309 9.89551 16.5791L9.80762 16.6396C9.56768 16.7932 9.28702 16.8751 9 16.875L8.89258 16.8711C8.67888 16.8559 8.47137 16.7951 8.28418 16.6934L8.19238 16.6396C7.98248 16.5052 7.81197 16.3209 7.69531 16.1055L7.64844 16.0117L7.15918 14.9268C6.95185 14.4668 6.60171 14.0845 6.16113 13.834C5.72071 13.5838 5.21189 13.4771 4.70703 13.5293H4.70605L3.50879 13.6553C3.25923 13.681 3.00807 13.6432 2.77832 13.5479L2.68066 13.5039C2.42565 13.376 2.21463 13.1781 2.07227 12.9355C1.93004 12.6931 1.86215 12.4155 1.87695 12.1367C1.89184 11.8578 1.98869 11.5882 2.15625 11.3613L2.86523 10.4014C3.16534 9.99467 3.32723 9.50418 3.32715 9L3.32031 8.81152C3.29024 8.43688 3.17051 8.07472 2.97168 7.75488L2.86523 7.59863L2.15625 6.63867C1.98871 6.41191 1.89184 6.1422 1.87695 5.86328C1.86216 5.58452 1.93005 5.30687 2.07227 5.06445C2.21443 4.82172 2.42555 4.62411 2.68066 4.49609C2.93578 4.36809 3.22345 4.31504 3.50879 4.34473L4.70996 4.4707C5.21493 4.52295 5.72445 4.41638 6.16504 4.16602H6.16602C6.60476 3.91487 6.95297 3.53238 7.15918 3.07324L7.64844 1.98828C7.76378 1.73241 7.9526 1.51394 8.19238 1.36035C8.40228 1.22599 8.64335 1.14669 8.89258 1.12891L9 1.125ZM9 6.375C7.55022 6.375 6.375 7.55022 6.375 9C6.375 10.4498 7.55022 11.625 9 11.625C10.4498 11.625 11.625 10.4498 11.625 9C11.625 7.55022 10.4498 6.375 9 6.375Z" fill="#E99A00" stroke="#E99A00" stroke-width="0.75"/>
</svg>
