<svg width="44" height="44" viewBox="0 0 44 44" fill="none" xmlns="http://www.w3.org/2000/svg">
<rect width="44" height="44" rx="22" fill="#F9E1B3"/>
<path fill-rule="evenodd" clip-rule="evenodd" d="M22.8333 13.6798C22.8333 13.6579 22.8333 13.6469 22.8324 13.6271C22.8127 13.2156 22.4508 12.8539 22.0394 12.8344C22.0195 12.8335 22.013 12.8335 22 12.8335H19.2989C18.6281 12.8335 18.0745 12.8335 17.6235 12.8703C17.1551 12.9086 16.7245 12.9907 16.32 13.1968C15.6928 13.5164 15.1829 14.0263 14.8633 14.6535C14.6572 15.058 14.5751 15.4886 14.5368 15.957C14.5 16.408 14.5 16.9616 14.5 17.6324V26.3679C14.5 27.0387 14.5 27.5923 14.5368 28.0433C14.5751 28.5117 14.6572 28.9423 14.8633 29.3468C15.1829 29.974 15.6928 30.4839 16.32 30.8035C16.7245 31.0096 17.1551 31.0917 17.6235 31.13C18.0745 31.1668 18.6281 31.1668 19.2989 31.1668H24.7011C25.3719 31.1668 25.9255 31.1668 26.3765 31.13C26.8449 31.0917 27.2755 31.0096 27.68 30.8035C28.3072 30.4839 28.8171 29.974 29.1367 29.3468C29.3427 28.9423 29.4249 28.5117 29.4632 28.0433C29.5 27.5923 29.5 27.0387 29.5 26.3679V20.3334C29.5 20.3205 29.5 20.314 29.4991 20.2942C29.4797 19.8827 29.1179 19.5208 28.7064 19.5011C28.6865 19.5002 28.6756 19.5002 28.6538 19.5002H24.9734C24.7631 19.5002 24.5582 19.5002 24.3848 19.4861C24.1943 19.4705 23.9695 19.4338 23.7433 19.3185C23.4297 19.1587 23.1748 18.9038 23.015 18.5902C22.8997 18.364 22.863 18.1392 22.8475 17.9487C22.8333 17.7752 22.8333 17.5704 22.8333 17.3601V13.6798ZM19.5 24.5002C19.0398 24.5002 18.6667 24.8732 18.6667 25.3335C18.6667 25.7937 19.0398 26.1668 19.5 26.1668H24.5C24.9602 26.1668 25.3333 25.7937 25.3333 25.3335C25.3333 24.8732 24.9602 24.5002 24.5 24.5002H19.5Z" fill="#E99A00"/>
<path d="M27.7567 17.8335C28.0013 17.8335 28.1237 17.8335 28.2238 17.7721C28.3654 17.6853 28.45 17.4809 28.4113 17.3195C28.3837 17.2052 28.304 17.1255 28.1444 16.966L25.3675 14.1891C25.2081 14.0295 25.1283 13.9498 25.0141 13.9223C24.8527 13.8835 24.6482 13.9681 24.5614 14.1096C24.5 14.2099 24.5 14.3322 24.5 14.5769V17.1668C24.5 17.4002 24.5 17.5168 24.5454 17.606C24.5853 17.6844 24.6491 17.7481 24.7275 17.7881C24.8167 17.8335 24.9333 17.8335 25.1667 17.8335L27.7567 17.8335Z" fill="#E99A00"/>
</svg>
