<svg width="18" height="18" viewBox="0 0 18 18" fill="none" xmlns="http://www.w3.org/2000/svg">
<path d="M8.67773 1.9585C8.88179 1.86129 9.1191 1.86117 9.32324 1.9585C9.48515 2.03587 9.5832 2.17523 9.64844 2.28174C9.71368 2.38831 9.78406 2.52934 9.8623 2.68799L11.4795 5.96436L11.5664 6.14014L11.7617 6.16846L15.3779 6.69775C15.5532 6.72334 15.7094 6.74664 15.8311 6.77588C15.9524 6.80508 16.1157 6.85543 16.2393 6.98584C16.3947 7.15001 16.4671 7.37594 16.4375 7.6001C16.4139 7.778 16.3125 7.91454 16.2314 8.00928C16.1907 8.05684 16.1422 8.10861 16.0879 8.16357L15.9102 8.33838L13.2939 10.8862L13.1533 11.0239L13.1865 11.2183L13.8037 14.8169C13.8187 14.9043 13.8331 14.9875 13.8447 15.064L13.8701 15.2729C13.8799 15.3974 13.8815 15.5675 13.7959 15.7251C13.688 15.9239 13.4958 16.0638 13.2734 16.105C13.0969 16.1376 12.9358 16.0825 12.8203 16.0347C12.7047 15.9867 12.5643 15.9142 12.4072 15.8315L9.1748 14.1313L9 14.0396L8.8252 14.1313L5.59277 15.8315C5.4358 15.9141 5.29528 15.9867 5.17969 16.0347C5.06432 16.0825 4.90312 16.1377 4.72656 16.105C4.50419 16.0638 4.31209 15.9239 4.2041 15.7251C4.11854 15.5675 4.12006 15.3974 4.12988 15.2729C4.13976 15.1482 4.16628 14.9916 4.19629 14.8169L4.81348 11.2183L4.84668 11.0239L4.70605 10.8862L2.08984 8.33838C1.96289 8.21472 1.84987 8.1043 1.76855 8.00928C1.68747 7.9145 1.58605 7.77796 1.5625 7.6001C1.5329 7.37596 1.60531 7.15001 1.76074 6.98584C1.8843 6.85542 2.04753 6.80508 2.16895 6.77588C2.29056 6.74663 2.44672 6.72335 2.62207 6.69775L6.23828 6.16846L6.43359 6.14014L6.52051 5.96436L8.1377 2.68799C8.21594 2.52937 8.28631 2.38833 8.35156 2.28174V2.28076C8.41663 2.17447 8.515 2.03578 8.67676 1.9585H8.67773Z" fill="#E99A00" stroke="#E99A00" stroke-width="0.75"/>
</svg>
