<svg width="24" height="24" viewBox="0 0 24 24" fill="none" xmlns="http://www.w3.org/2000/svg">
<path fill-rule="evenodd" clip-rule="evenodd" d="M12 21C16.9706 21 21 16.9706 21 12C21 7.02944 16.9706 3 12 3C7.02944 3 3 7.02944 3 12C3 16.9706 7.02944 21 12 21ZM15.6829 10.0828C15.8391 9.92663 15.8391 9.67337 15.6829 9.51716C15.5267 9.36095 15.2735 9.36095 15.1173 9.51716L11.0001 13.6343L9.28294 11.9172C9.12673 11.761 8.87347 11.761 8.71725 11.9172C8.56105 12.0734 8.56105 12.3266 8.71725 12.4828L10.7173 14.4828C10.8735 14.639 11.1267 14.639 11.2829 14.4828L15.6829 10.0828Z" fill="#0A7D00"/>
</svg>
