<svg width="28" height="28" viewBox="0 0 28 28" fill="none" xmlns="http://www.w3.org/2000/svg">
<path d="M14 2.91667C14.6443 2.91667 15.1667 3.43901 15.1667 4.08333V6.41667C15.1667 7.06099 14.6443 7.58333 14 7.58333C13.3556 7.58333 12.8333 7.06099 12.8333 6.41667V4.08333C12.8333 3.43901 13.3556 2.91667 14 2.91667Z" fill="white"/>
<path d="M3.49999 23.9167C3.49999 23.2723 4.02233 22.75 4.66666 22.75H23.3333C23.9777 22.75 24.5 23.2723 24.5 23.9167C24.5 24.561 23.9777 25.0833 23.3333 25.0833H4.66666C4.02233 25.0833 3.49999 24.561 3.49999 23.9167Z" fill="white"/>
<path d="M2.33332 14.5833C1.689 14.5833 1.16666 15.1057 1.16666 15.75C1.16666 16.3944 1.689 16.9167 2.33332 16.9167H4.66666C5.31098 16.9167 5.83332 16.3944 5.83332 15.75C5.83332 15.1057 5.31098 14.5833 4.66666 14.5833H2.33332Z" fill="white"/>
<path d="M4.89159 6.6416C5.3472 6.18598 6.0859 6.18598 6.5415 6.6416L8.19141 8.29151C8.64703 8.74712 8.64703 9.48582 8.19141 9.94143C7.73581 10.397 6.99711 10.397 6.5415 9.94143L4.89159 8.29151C4.43597 7.83591 4.43597 7.09721 4.89159 6.6416Z" fill="white"/>
<path d="M23.108 8.29151C23.5636 7.83591 23.5636 7.09721 23.108 6.6416C22.6523 6.18598 21.9137 6.18598 21.4581 6.6416L19.8081 8.29151C19.3525 8.74712 19.3525 9.48582 19.8081 9.94143C20.2638 10.397 21.0024 10.397 21.4581 9.94143L23.108 8.29151Z" fill="white"/>
<path d="M22.1667 15.75C22.1667 15.1057 22.689 14.5833 23.3333 14.5833H25.6667C26.311 14.5833 26.8333 15.1057 26.8333 15.75C26.8333 16.3944 26.311 16.9167 25.6667 16.9167H23.3333C22.689 16.9167 22.1667 16.3944 22.1667 15.75Z" fill="white"/>
<path d="M2.33332 18.6667C1.689 18.6667 1.16666 19.189 1.16666 19.8333C1.16666 20.4777 1.689 21 2.33332 21H25.6667C26.311 21 26.8333 20.4777 26.8333 19.8333C26.8333 19.189 26.311 18.6667 25.6667 18.6667H2.33332Z" fill="white"/>
<path d="M14 8.75C10.134 8.75 6.99999 11.884 6.99999 15.75C6.99999 16.3944 7.52233 16.9167 8.16666 16.9167H19.8333C20.4777 16.9167 21 16.3944 21 15.75C21 11.884 17.866 8.75 14 8.75Z" fill="white"/>
</svg>
