<svg width="17" height="20" viewBox="0 0 17 20" fill="none" xmlns="http://www.w3.org/2000/svg">
<path d="M13.4226 2.74408C13.0972 2.41864 12.5695 2.41864 12.2441 2.74408L8.91079 6.07741C8.58537 6.40285 8.58537 6.93048 8.91079 7.25593C9.23621 7.58136 9.76387 7.58136 10.0893 7.25593L12 5.34517V16.6667C12 17.1269 12.3731 17.5 12.8334 17.5C13.2936 17.5 13.6667 17.1269 13.6667 16.6667V5.34517L15.5775 7.25593C15.9029 7.58136 16.4305 7.58136 16.756 7.25593C17.0814 6.93048 17.0814 6.40285 16.756 6.07741L13.4226 2.74408Z" fill="white"/>
<path d="M5.33337 3.33333C5.33337 2.8731 4.96027 2.5 4.50004 2.5C4.03981 2.5 3.66671 2.8731 3.66671 3.33333V14.6548L1.75597 12.7441C1.43052 12.4187 0.902891 12.4187 0.577449 12.7441C0.252016 13.0695 0.252016 13.5972 0.577449 13.9226L3.91078 17.2559C4.23622 17.5813 4.76386 17.5813 5.0893 17.2559L8.42262 13.9226C8.74804 13.5972 8.74804 13.0695 8.42262 12.7441C8.09721 12.4187 7.56954 12.4187 7.24412 12.7441L5.33337 14.6548V3.33333Z" fill="white"/>
</svg>
