<svg width="18" height="18" viewBox="0 0 18 18" fill="none" xmlns="http://www.w3.org/2000/svg">
<path d="M5.06934 2.625H12.9307C13.5399 2.62499 14.021 2.62559 14.4082 2.65723C14.8064 2.68975 15.139 2.75715 15.4414 2.91113C15.9353 3.1628 16.3372 3.56466 16.5889 4.05859C16.7429 4.36092 16.8103 4.69364 16.8428 5.0918C16.8744 5.47903 16.875 5.96014 16.875 6.56934V11.4307C16.875 12.0399 16.8744 12.521 16.8428 12.9082C16.8143 13.2568 16.7593 13.5553 16.6426 13.8271L16.5889 13.9414C16.3686 14.3736 16.0333 14.7351 15.6221 14.9873L15.4414 15.0889C15.139 15.2429 14.8063 15.3103 14.4082 15.3428C14.021 15.3744 13.5399 15.375 12.9307 15.375H5.06934C4.46014 15.375 3.97903 15.3744 3.5918 15.3428C3.19364 15.3103 2.86092 15.2429 2.55859 15.0889C2.06466 14.8372 1.6628 14.4353 1.41113 13.9414C1.25715 13.639 1.18975 13.3064 1.15723 12.9082C1.12559 12.521 1.12499 12.0399 1.125 11.4307V6.56934C1.12499 5.96013 1.12559 5.47901 1.15723 5.0918C1.18976 4.69361 1.25715 4.36091 1.41113 4.05859C1.6628 3.56467 2.06467 3.1628 2.55859 2.91113C2.86091 2.75715 3.19361 2.68976 3.5918 2.65723C3.97901 2.62559 4.46014 2.62499 5.06934 2.625ZM6 11.25C5.37869 11.25 4.875 11.7537 4.875 12.375V13.125C4.875 13.7463 5.37869 14.25 6 14.25C6.62132 14.25 7.125 13.7463 7.125 13.125V12.375C7.125 11.7537 6.62132 11.25 6 11.25ZM6 7.5C5.37869 7.5 4.875 8.00366 4.875 8.625V9.375C4.875 9.99634 5.37869 10.5 6 10.5C6.62132 10.5 7.125 9.99633 7.125 9.375V8.625C7.125 8.00367 6.62132 7.5 6 7.5ZM6 3.75C5.37868 3.75 4.875 4.25368 4.875 4.875V5.625C4.875 6.24633 5.37869 6.75 6 6.75C6.62132 6.75 7.125 6.24632 7.125 5.625V4.875C7.125 4.25369 6.62133 3.75 6 3.75Z" fill="#E99A00" stroke="#E99A00" stroke-width="0.75"/>
</svg>
