<svg width="18" height="18" viewBox="0 0 18 18" fill="none" xmlns="http://www.w3.org/2000/svg">
<path d="M14.625 12C14.8321 12 15 12.1679 15 12.375V14.25H16.875C17.0821 14.25 17.25 14.4179 17.25 14.625C17.25 14.8321 17.0821 15 16.875 15H15V16.875C15 17.0821 14.8321 17.25 14.625 17.25C14.4179 17.25 14.25 17.0821 14.25 16.875V15H12.375C12.1679 15 12 14.8321 12 14.625C12 14.4179 12.1679 14.25 12.375 14.25H14.25V12.375C14.25 12.1679 14.4179 12 14.625 12ZM8.625 0.75C12.9742 0.75 16.5 4.27576 16.5 8.625C16.5 8.93829 16.4818 9.24723 16.4463 9.55078L16.4053 9.85254C16.3771 10.0326 16.3585 10.1481 16.3398 10.2295C16.338 10.2376 16.3347 10.2445 16.333 10.251C16.312 10.2438 16.2847 10.2366 16.252 10.2236C16.1284 10.1745 15.9566 10.0961 15.7109 9.98438C15.3796 9.83363 15.0115 9.75 14.625 9.75C13.2939 9.75 12.1965 10.741 12.0254 12.0254C10.741 12.1965 9.75 13.2939 9.75 14.625C9.75 15.0115 9.83363 15.3796 9.98438 15.7109C10.0961 15.9566 10.1745 16.1284 10.2236 16.252C10.2366 16.2847 10.2438 16.312 10.251 16.333C10.2445 16.3347 10.2376 16.338 10.2295 16.3398L9.85254 16.4053C9.45275 16.4678 9.04272 16.5 8.625 16.5C4.27576 16.5 0.75 12.9742 0.75 8.625C0.75 4.27576 4.27576 0.75 8.625 0.75ZM8.625 3C8.00366 3 7.5 3.50369 7.5 4.125V8.625C7.5 9.05116 7.74095 9.4403 8.12207 9.63086L11.1221 11.1309C11.6778 11.4087 12.353 11.1837 12.6309 10.6279C12.9087 10.0722 12.6837 9.39701 12.1279 9.11914L9.75 7.92969V4.125C9.75 3.50369 9.24634 3 8.625 3Z" fill="#E99A00" stroke="#E99A00" stroke-width="0.75"/>
</svg>
