<svg width="24" height="25" viewBox="0 0 24 25" fill="none" xmlns="http://www.w3.org/2000/svg">
<path fill-rule="evenodd" clip-rule="evenodd" d="M3.41812 18.4599C5.39108 15.8488 8.49885 14.1568 12 14.1568C15.5011 14.1568 18.6089 15.8488 20.5818 18.4599C20.5907 18.4717 20.5997 18.4836 20.6087 18.4954C20.7783 18.7198 20.9602 18.9603 21.0902 19.1924C21.2475 19.4733 21.3642 19.7982 21.3569 20.1934C21.3511 20.511 21.2549 20.8084 21.138 21.0432C21.0211 21.278 20.8419 21.534 20.592 21.7302C20.2586 21.9918 19.8957 22.0844 19.5733 22.123C19.2905 22.1569 18.9553 22.1569 18.6183 22.1568C18.6031 22.1568 18.5879 22.1568 18.5727 22.1568H5.42721C5.41202 22.1568 5.39683 22.1568 5.38165 22.1568C5.04465 22.1569 4.70946 22.1569 4.42662 22.123C4.10423 22.0844 3.74132 21.9918 3.408 21.7302C3.15805 21.534 2.97883 21.278 2.86195 21.0432C2.74507 20.8084 2.64883 20.511 2.64302 20.1934C2.63579 19.7982 2.7524 19.4733 2.90974 19.1924C3.03972 18.9603 3.22162 18.7198 3.39125 18.4954C3.40025 18.4836 3.4092 18.4717 3.41812 18.4599Z" fill="#E99A00"/>
<path fill-rule="evenodd" clip-rule="evenodd" d="M6.5 7.65676C6.5 4.61919 8.96244 2.15676 12 2.15676C15.0375 2.15676 17.5 4.61919 17.5 7.65676C17.5 10.6944 15.0375 13.1568 12 13.1568C8.96244 13.1568 6.5 10.6944 6.5 7.65676Z" fill="#E99A00"/>
</svg>
