<svg width="32" height="32" viewBox="0 0 32 32" fill="none" xmlns="http://www.w3.org/2000/svg">
<path d="M9.09439 7.21054C9.02942 7.10547 8.90295 7.08645 8.65001 7.04841C8.43802 7.01653 8.221 7 8.00012 7C5.60689 7 3.66679 8.9401 3.66679 11.3333C3.66679 13.7266 5.60689 15.6667 8.00012 15.6667C8.72439 15.6667 9.40714 15.489 10.0072 15.1748C10.2336 15.0563 10.3468 14.997 10.3739 14.8767C10.401 14.7563 10.313 14.6393 10.1369 14.4053C9.21388 13.1788 8.66679 11.6533 8.66679 10C8.66679 9.20927 8.79194 8.44778 9.02351 7.73424C9.11408 7.45515 9.15937 7.31561 9.09439 7.21054Z" fill="black"/>
<path d="M8.9709 18.1203C9.24659 17.9498 9.62174 17.735 10.0045 17.5298C10.5093 17.2593 10.7616 17.124 10.7388 16.9423C10.7159 16.7605 10.4573 16.6967 9.94011 16.5692C7.7463 16.0282 5.39691 16.4175 3.42702 17.7371C3.35356 17.7863 3.25797 17.8468 3.14645 17.9174C2.62449 18.2479 1.75292 18.7997 1.16161 19.4508C0.786961 19.8634 0.412361 20.4277 0.344274 21.1284C0.271757 21.8748 0.564145 22.5725 1.13023 23.1792C1.88728 23.9906 2.8098 24.7348 4.17489 24.9426C4.49393 24.9911 4.65345 25.0154 4.74918 24.9162C4.84491 24.8169 4.80909 24.6277 4.73743 24.2494C4.66583 23.8714 4.64606 23.4734 4.68981 23.0577C4.83151 21.7115 5.59279 20.7329 6.17189 20.1442C7.06926 19.2321 8.31142 18.5059 8.9709 18.1203Z" fill="black"/>
<path d="M21.6269 14.8767C21.5998 14.7563 21.6878 14.6393 21.8639 14.4053C22.7869 13.1788 23.334 11.6533 23.334 10C23.334 9.20927 23.2089 8.44778 22.9773 7.73424C22.8867 7.45515 22.8415 7.31561 22.9064 7.21054C22.9714 7.10547 23.0979 7.08645 23.3508 7.04841C23.5628 7.01653 23.7798 7 24.0007 7C26.3939 7 28.334 8.9401 28.334 11.3333C28.334 13.7266 26.3939 15.6667 24.0007 15.6667C23.2764 15.6667 22.5937 15.489 21.9936 15.1748C21.7673 15.0563 21.6541 14.997 21.6269 14.8767Z" fill="black"/>
<path d="M23.0298 18.1203C22.7541 17.9498 22.3789 17.735 21.9961 17.5298C21.4914 17.2593 21.239 17.124 21.2619 16.9423C21.2847 16.7605 21.5433 16.6967 22.0606 16.5692C24.2544 16.0282 26.6038 16.4175 28.5736 17.7371C28.6471 17.7863 28.7427 17.8468 28.8542 17.9174C29.3762 18.2479 30.2478 18.7997 30.8391 19.4508C31.2137 19.8634 31.5883 20.4277 31.6564 21.1284C31.7289 21.8748 31.4365 22.5725 30.8704 23.1792C30.1134 23.9906 29.1909 24.7348 27.8258 24.9426C27.5067 24.9911 27.3472 25.0154 27.2515 24.9162C27.1558 24.8169 27.1916 24.6277 27.2632 24.2494C27.3348 23.8714 27.3546 23.4734 27.3109 23.0577C27.1692 21.7115 26.4079 20.7329 25.8288 20.1442C24.9314 19.2321 23.6892 18.5059 23.0298 18.1203Z" fill="black"/>
<path d="M16.0026 4.33301C12.873 4.33301 10.3359 6.87006 10.3359 9.99967C10.3359 13.1293 12.873 15.6663 16.0026 15.6663C19.1322 15.6663 21.6693 13.1293 21.6693 9.99967C21.6693 6.87006 19.1322 4.33301 16.0026 4.33301Z" fill="#D48C00"/>
<path d="M21.7503 19.2974C18.2333 17.1227 13.7723 17.1227 10.2553 19.2974C10.1516 19.3615 10.0203 19.4383 9.86939 19.5266C9.18636 19.9263 8.10207 20.5608 7.3622 21.3128C6.8975 21.7852 6.43404 22.4291 6.34954 23.2319C6.25913 24.0908 6.62367 24.8858 7.31909 25.5738C8.46792 26.7104 9.89103 27.6663 11.757 27.6663H20.2486C22.1146 27.6663 23.5377 26.7104 24.6865 25.5738C25.3819 24.8858 25.7465 24.0908 25.6561 23.2319C25.5716 22.4291 25.1081 21.7852 24.6434 21.3128C23.9035 20.5608 22.8193 19.9263 22.1363 19.5267C21.9854 19.4384 21.854 19.3615 21.7503 19.2974Z" fill="#D48C00"/>
</svg>
