<svg width="26" height="30" viewBox="0 0 26 30" fill="none" xmlns="http://www.w3.org/2000/svg">
<path d="M20.7416 18.7832C20.8967 18.8756 21.0883 18.9836 21.3052 19.106C22.2556 19.6422 23.6923 20.4527 24.6765 21.4161C25.292 22.0186 25.8769 22.8126 25.9832 23.7853C26.0963 24.8198 25.645 25.7906 24.7397 26.6531C23.1777 28.1412 21.3034 29.3337 18.879 29.3337H7.12127C4.69686 29.3337 2.82248 28.1412 1.26055 26.6531C0.355191 25.7906 -0.0960931 24.8198 0.0169824 23.7853C0.12331 22.8126 0.708182 22.0186 1.32374 21.4161C2.30796 20.4527 3.74464 19.6422 4.69506 19.106L4.69507 19.106C4.91196 18.9836 5.10352 18.8756 5.2586 18.7832C9.99733 15.9616 16.0029 15.9616 20.7416 18.7832Z" fill="black"/>
<path d="M6 7.66699C6 3.801 9.13401 0.666992 13 0.666992C16.866 0.666992 20 3.801 20 7.66699C20 11.533 16.866 14.667 13 14.667C9.13401 14.667 6 11.533 6 7.66699Z" fill="#D48C00"/>
</svg>
