<svg width="24" height="25" viewBox="0 0 24 25" fill="none" xmlns="http://www.w3.org/2000/svg">
<path d="M2 22.8122L3.41254 17.6519C2.5409 16.1414 2.08289 14.4291 2.08373 12.6733C2.08624 7.18385 6.5533 2.7168 12.0419 2.7168C14.7053 2.71763 17.2056 3.75506 19.0862 5.63734C20.9659 7.51961 22.0008 10.0215 22 12.6825C21.9975 18.1727 17.5304 22.6398 12.0419 22.6398C10.3756 22.6389 8.73365 22.2211 7.27924 21.4273L2 22.8122ZM7.52374 19.6246C8.92707 20.4577 10.2668 20.9568 12.0385 20.9576C16.6002 20.9576 20.3162 17.245 20.3187 12.6808C20.3204 8.1074 16.622 4.39979 12.0452 4.39812C7.4802 4.39812 3.76673 8.11075 3.76505 12.6741C3.76421 14.5371 4.31014 15.9321 5.22699 17.3915L4.39052 20.446L7.52374 19.6246ZM17.0582 15.0495C16.9962 14.9457 16.8304 14.8838 16.5809 14.759C16.3322 14.6342 15.1089 14.0322 14.8803 13.9493C14.6526 13.8664 14.4868 13.8246 14.3202 14.0741C14.1544 14.3228 13.6771 14.8838 13.5323 15.0495C13.3874 15.2153 13.2417 15.2363 12.993 15.1115C12.7444 14.9867 11.9422 14.7247 10.9919 13.8765C10.2525 13.2167 9.75266 12.402 9.6078 12.1524C9.46295 11.9038 9.59273 11.769 9.71665 11.645C9.82885 11.5337 9.96533 11.3545 10.0901 11.2088C10.2165 11.0648 10.2576 10.961 10.3413 10.7943C10.4242 10.6285 10.3832 10.4829 10.3204 10.3581C10.2576 10.2342 9.76019 9.00919 9.55338 8.51099C9.35075 8.02618 9.14561 8.09149 8.99322 8.08396L8.51595 8.07558C8.35016 8.07558 8.08055 8.13755 7.8528 8.38706C7.62505 8.63658 6.982 9.23777 6.982 10.4628C6.982 11.6877 7.87373 12.8709 7.99765 13.0366C8.12241 13.2024 9.75182 15.716 12.2478 16.7937C12.8415 17.0499 13.3054 17.2031 13.6662 17.3178C14.2624 17.507 14.805 17.4803 15.2337 17.4166C15.7118 17.3454 16.7057 16.8146 16.9133 16.2335C17.121 15.6516 17.121 15.1534 17.0582 15.0495Z" fill="black"/>
</svg>
